<svg xmlns="http://www.w3.org/2000/svg" enable-background="new 0 0 2340 1560" viewBox="0 0 2340 1560"><rect width="75.3" height="261.4" x="833.4" y="1019.6" fill="#fff"/><path fill="#9ddde7" d="M911.5,1283.9h-81V1017h81V1283.9z M836.2,1278.3h69.8v-256h-69.8V1278.3z"/><rect width="10.7" height="11.8" x="844.3" y="1043.2" fill="#9cdce6"/><rect width="10.7" height="11.8" x="844.3" y="1073" fill="#9cdce6"/><rect width="10.7" height="11.8" x="844.3" y="1102.7" fill="#9cdce6"/><rect width="10.7" height="11.8" x="844.3" y="1132.5" fill="#9cdce6"/><rect width="10.7" height="11.8" x="844.3" y="1162.4" fill="#9cdce6"/><rect width="10.7" height="11.8" x="844.3" y="1192.1" fill="#9cdce6"/><rect width="117.6" height="387.7" x="1060.5" y="893.2" fill="#fff"/><path fill="#9ddde7" d="M1180.9,1283.9h-123.2V890.5h123.2V1283.9z M1063.3,1278.3h112.1V896h-112.1V1278.3z"/><rect width="50.9" height="8.7" x="1060.5" y="932.6" fill="#9cdce6"/><rect width="50.9" height="8.7" x="1060.5" y="959.6" fill="#9cdce6"/><rect width="50.9" height="8.7" x="1060.5" y="986.6" fill="#9cdce6"/><rect width="50.9" height="8.7" x="1060.5" y="1013.8" fill="#9cdce6"/><rect width="50.9" height="8.7" x="1060.5" y="1067.8" fill="#9cdce6"/><rect width="50.9" height="8.7" x="1060.5" y="1121.9" fill="#9cdce6"/><rect width="50.9" height="8.7" x="1060.5" y="1040.8" fill="#9cdce6"/><rect width="50.9" height="8.7" x="1060.5" y="1094.7" fill="#9cdce6"/><rect width="81.7" height="335.1" x="1216.5" y="946" fill="#9cdce6"/><path fill="#9ddde7" d="M1301,1283.9h-87.3V943.2h87.3V1283.9z M1219.3,1278.3h76.2V948.7h-76.2V1278.3z"/><rect width="65.2" height="335.1" x="1164.5" y="946" fill="#fff"/><path fill="#9ddde7" d="M1232.6,1283.9h-70.9V943.2h70.9V1283.9z M1167.3,1278.3h59.7V948.7h-59.7V1278.3z"/><rect width="5.8" height="313.2" x="1171.9" y="956.9" fill="#9cdce6"/><rect width="5.8" height="313.2" x="1185.9" y="956.9" fill="#9cdce6"/><rect width="5.8" height="313.2" x="1199.8" y="956.9" fill="#9cdce6"/><rect width="5.8" height="313.2" x="1213.8" y="956.9" fill="#9cdce6"/><rect width="58.4" height="198" x="1011.9" y="1083.1" fill="#9cdce6"/><path fill="#9ddde7" d="M1073.3,1283.9h-64.1v-203.5h64.1V1283.9z M1014.7,1278.3h52.9v-192.5h-52.9L1014.7,1278.3L1014.7,1278.3z"/><rect width="72.9" height="198" x="953.9" y="1083.1" fill="#fff"/><path fill="#9ddde7" d="M1029.6,1283.9H951v-203.5h78.5V1283.9z M956.7,1278.3h67.3v-192.5h-67.3V1278.3z"/><rect width="6.6" height="8.9" x="962.1" y="1098.9" fill="#9cdce6"/><rect width="6.6" height="8.9" x="977.7" y="1098.9" fill="#9cdce6"/><rect width="6.6" height="8.9" x="993.2" y="1098.9" fill="#9cdce6"/><rect width="6.6" height="8.9" x="1008.9" y="1098.9" fill="#9cdce6"/><rect width="6.6" height="8.9" x="962.1" y="1120.2" fill="#9cdce6"/><rect width="6.6" height="8.9" x="977.7" y="1120.2" fill="#9cdce6"/><rect width="6.6" height="8.9" x="993.2" y="1120.2" fill="#9cdce6"/><rect width="6.6" height="8.9" x="1008.9" y="1120.2" fill="#9cdce6"/><rect width="6.6" height="8.9" x="962.1" y="1141.4" fill="#9cdce6"/><rect width="6.6" height="8.9" x="977.7" y="1141.4" fill="#9cdce6"/><rect width="6.6" height="8.9" x="993.2" y="1141.4" fill="#9cdce6"/><rect width="6.6" height="8.9" x="1008.9" y="1141.4" fill="#9cdce6"/><rect width="6.6" height="8.9" x="962.1" y="1162.5" fill="#9cdce6"/><rect width="6.6" height="8.9" x="977.7" y="1162.5" fill="#9cdce6"/><rect width="6.6" height="8.9" x="993.2" y="1162.5" fill="#9cdce6"/><rect width="6.6" height="8.9" x="1008.9" y="1162.5" fill="#9cdce6"/><rect width="6.6" height="8.9" x="962.1" y="1183.7" fill="#9cdce6"/><rect width="6.6" height="8.9" x="977.7" y="1183.7" fill="#9cdce6"/><rect width="6.6" height="8.9" x="993.2" y="1183.7" fill="#9cdce6"/><rect width="6.6" height="8.9" x="1008.9" y="1183.7" fill="#9cdce6"/><rect width="6.6" height="8.9" x="962.1" y="1204.9" fill="#9cdce6"/><rect width="6.6" height="8.9" x="977.7" y="1204.9" fill="#9cdce6"/><rect width="6.6" height="8.9" x="993.2" y="1204.9" fill="#9cdce6"/><rect width="6.6" height="8.9" x="1008.9" y="1204.9" fill="#9cdce6"/><rect width="6.6" height="8.9" x="962.1" y="1226.2" fill="#9cdce6"/><rect width="6.6" height="8.9" x="977.7" y="1226.2" fill="#9cdce6"/><rect width="6.6" height="8.9" x="993.2" y="1226.2" fill="#9cdce6"/><rect width="6.6" height="8.9" x="1008.9" y="1226.2" fill="#9cdce6"/><rect width="6.6" height="8.9" x="962.1" y="1247.4" fill="#9cdce6"/><rect width="6.6" height="8.9" x="977.7" y="1247.4" fill="#9cdce6"/><rect width="6.6" height="8.9" x="993.2" y="1247.4" fill="#9cdce6"/><rect width="6.6" height="8.9" x="1008.9" y="1247.4" fill="#9cdce6"/><path fill="#6d4e4d" d="M1553.2,410.4c0,0-10.3-8.3-10.6-24.2s2.8-33.4,5.1-32.8c2.3,0.8,10.1,4.3,13.5,1.7s19.3-18.7,30.5-21.9
	c11.2-3.2,27.8-7.5,52.1-1.8s28.7,22.1,28.7,22.1s22.4-1.4,32.1,28.8c9.7,30.2-6.6,61-14.1,71.8c-7.7,10.7-45.7,17.3-66,0
	C1604.3,436.6,1553.2,410.2,1553.2,410.4L1553.2,410.4z"/><path d="M1405.6,1148.3c-1.4,0,41.7-2.9,68.9-19.9l-5.7-9.5C1469,1118.7,1409.8,1148.1,1405.6,1148.3L1405.6,1148.3z"/><path d="M1564.2,1023.6c0,0-4.3,72.1-8,80.7c-3.8,8.6-13.2,9.5-13.2,9.5s12.6,8.6,21.2,4.9V1023.6L1564.2,1023.6z"/><path d="M1865,1104.9c2.1-3.5,5.2-6.3,5.5-4.6c4,32.7,24.8,66.9,24.8,66.9l-10.6,5.2L1865,1104.9L1865,1104.9z"/><path fill="#009a93" d="M1356.4,1152.1l-34-82.8l-47.7-136.5c0,0-14.1-45.4-17.2-77.1s10.4-62.7,34.4-80.7c23.8-17.9,46.5-29,88.2-10
	c41.7,19,113.5,133.1,113.5,133.1s64.4,45.1,139,52c74.5,6.9,96.2-2.5,96.2-2.5s-3.2,88.3-4.3,104.9c-1.2,16.6-17,86.2-17,86.2
	l150-43.3c0,0,3.5-0.9,5.7,4.3c2.1,5.1,28.5,78.2,26.8,101.8c-1.7,23.6-6.1,26.7-6.1,26.7c-8,6.7-117.9,38-190.2,43.9
	c-72.2,5.8-114.3-7.7-125.2-47.2s-7.5-57.2-6.6-69.5c0.9-12.3,2.6-36.8,2.6-36.8s-19.8,4.9-56.9-24.5
	c-37.1-29.4-43.4-48.3-43.4-48.3s17.6,47.5,18.4,54.6c0.8,7.1-6.4,19.3-14.7,22.2C1459.5,1126,1362.8,1169.4,1356.4,1152.1
	L1356.4,1152.1z"/><path fill="#fec3aa" d="M1409.6,1173.3l-11-25l31.6-10.3l38.8-19.3l26.5,60.4c0,0-9.2,16.7-31.6,14.6c-22.4-2.1-29.6-5.7-38.8-10.7
	C1416.1,1178,1409.6,1173.3,1409.6,1173.3L1409.6,1173.3z"/><path fill="#8ecf9d" d="M1516.4,681.9c0,0-91.6,30.8-96.8,29.9c-5.2-0.8-7.2-4-8.4-7.7c-1.4-3.7-24.8-93.4-21.9-96.8
	c2.9-3.4,58.3-27.5,58.3-27.5s48-24.2,75.6-31c27.6-6.7,58.9-5.4,58.9-5.4s6.7,20.9,48,22.9c41.3,2,49.5-19.5,49.5-19.5
	s67.3,24.2,79.6,29.4s29.8,19.6,37.7,35.9c8,16.1,51.1,110.3,54.8,126.8c0,0,2.6,6.7-3.2,8.7c-5.7,2-89.1,30.5-94,31.9
	c-4.9,1.4-7.5-1.5-8.4-4.9c-0.9-3.4-6.9-20.1-6.9-20.1s-10.6,129.8-12.6,140.3c-2,10.6,2,52.3,2,52.3s-44,12.1-84.7,5.8
	c-40.6-6.3-111.7-35-131.6-46.6c-19.9-11.7-25.6-20.6-25.6-20.6s-6.1-8-4.3-10c1.8-2,19-74.8,21.2-87
	C1505.5,777.3,1516.4,681.9,1516.4,681.9L1516.4,681.9z"/><path fill="#fec3aa" d="M1847.1,773.1c-1.7-9.8-0.3-26.7-9.8-23.8c-18.6,5.7-60.3,20.4-65.5,22.2c-1.2,0.5-2.6,1.1-4,1.5
	c-8.1,3.4-11,5.1-13.5,6.6c3.5,9.7,12.4,33.4,9.5,35.1c-8.7,4.9-38.3,11.7-50.5,15.2c-11.8,3.4-48.3,16.4-59.4,16.4
	c-3.8,0,1.1-14.7,0.6-26.1c0-1.4-0.2-2.8-0.2-4.1c-0.6-12.6-5.1-31.3-11-36.5c-0.9-0.8-1.7-1.2-2.5-1.4c-5.1-1.5-6.4,4.3-6.4,4.3
	s-4.6-10.7-5.8-13.8c-4.3-10-9.5-19.6-13.3-23c-6-5.4-10.7,2.3-10.7,2.3s-2.8-7.7-10.6-9.5c-7.8-1.8-8.1,10.7-8.1,10.7
	s-6.4-6.3-10.7,1.7c-4.3,7.8,1.7,23.6,6.9,38.3c5.2,14.6-3.2,27-3.2,27c0-7.7-3.7-29.9-9.2-38.2c-5.4-8.1-12.3-9.7-16.1-4.6
	c-3.7,5.1,2.3,19.5,5.7,30.8c3.4,11.3,3.7,44.9,7.1,68.4c2.6,18.3,14.4,29.4,18.7,33.1c1.1,0.8,2.1,1.5,3.2,2.1l23.3,11.3
	c1.5,0.8,3.1,1.2,4.6,1.5c30.7,4.3,111.2-8.3,111.2-8.3s80.5-12.1,94.8-17.3c14.3-5.2,32.4-23,31.4-51.1
	C1853,825.7,1850.7,794.7,1847.1,773.1L1847.1,773.1z"/><path fill="#fec3aa" d="M1156.1,580.5c0,0-30.5-9.2-49.5-26.1c-15.3-13.7-29.6-25.6-30.7-31c-1.1-5.4-4.1-10.9,6.4-9.2
	c0,0-13-19-7.7-26.7c0,0,2.9-5.2,9.2,2.8c0,0-9.4-19.5-9.2-26.7c0.3-7.2,5.8-8.7,9.4-4.3c3.5,4.4,14,23.6,17,27.8
	c3.1,4.3,16.6,13.7,16.6,13.7s-25.6-35.9-28.4-44c-2.6-8.1-1.8-16.1,2-16.1c3.8,0,8.1,0.8,13,7.8c4.9,7.1,15.2,25.5,21.5,32.2
	c6.3,6.7,21.8,17.3,21.8,17.3s-10-24.2-12.3-35.1c-2.1-10.9,6.4-19.2,10.3-13.8c3.7,5.4,11.7,24.7,15.8,31.3
	c4.1,6.6,19.2,26.8,23.2,36.5c4,9.7,7.1,24.2,7.1,24.2s99.2,97.5,106.9,99.2c7.7,1.7,90.8-25.2,90.8-25.2l21.5,89
	c0,0-77.9,15.6-88.8,16.9s-34.5,6.6-57.5-13.8c-10.4-9.2-36.8-33.1-59.2-59.8C1178.5,615.3,1156.1,580.5,1156.1,580.5L1156.1,580.5z
	"/><path fill="#fec3aa" d="M1584.5,543.5l7.4-18.6c0,0-26.5-11.2-31.7-33.4c-5.1-22.2-7.8-28.1-4.3-41.1s3.5-47.5,3.5-47.5
	s-2.8-12.4,8.3-14c11-1.5,38.3-0.3,50.3-4.3c12-4,19.3-2.1,25.2,5.5s9.4,29,16,42.8c6.6,13.8,13.3,18.7,13.3,18.7s1.9,0.9,3.6-0.7
	c3.7-3.2,9.6-9.7,16-6.4c9.5,4.9,11.8,16.6,8.1,25.8c-3.5,9.4-12,19.2-29.3,21c0,0-4,15.5-2.5,26.4c1.5,10.9,10.9,29.1,10.9,29.1
	s-16,20.9-49.5,19.5C1596.3,565,1586.8,550.3,1584.5,543.5L1584.5,543.5z"/><path fill="#fec3aa" d="M1867,1102.1l41.4-12.6c0,0,9.7,13.8,14.1,28.5c4.4,14.7,1.1,38-3.2,42.9c-4.3,4.9-34.8,11.5-34.8,11.5
	L1867,1102.1L1867,1102.1z"/><path fill="#fff" d="M1906.7,1086.9c0,0,35.7-15.8,41.9-16.6c6.1-0.8,27.3-2.5,34.5,10.1s5.7,27.8,7.2,40.3
	c1.5,12.6,6.7,49.7,13.2,63c6.3,13.2,9.5,49.4,4.4,65c-5.1,15.8-15.3,15.5-29.1,16.7c-13.8,1.2-29.3-12.6-31.4-22.2
	c-2.1-9.5-1.4-32.7-6.9-39.1s-20.9-19.3-23.6-25.8c-2.6-6.4-5.7-12.1-1.5-14.9c4.1-2.8,8.7-8.3,9.4-15.2
	C1925.4,1141.7,1922.1,1101.5,1906.7,1086.9L1906.7,1086.9z"/><path fill="#fff" d="M1330,1220.5c13.5-1.8,42.9-19.2,54-27c11-7.8,13.3-19.9,26.5-17c10.4,2.3,18.6,10,28.4,14.1
	c11.3,4.8,24.4,4.3,36.2,0.8s18.9-15.5,26.2-12.4c0,0,5.2,1.7,8,7.7s10.9,48.3,12.6,58.9c1.7,10.6,1.5,24.7-15.3,27.9
	c-31.1,6-39.6,1.8-78.8,6.9c-9.5,1.2-78.5,6.6-118.6,1.4C1277,1277.3,1265.5,1228.9,1330,1220.5L1330,1220.5z"/><path d="M1399.2,1149.7c-0.8,0.2,3.8,8.7,3.8,8.7s16.6-13.8,39.7-19.8s36.7,3.7,36.7,3.7l-8.9-23.5
	C1470.4,1118.7,1440.9,1136.8,1399.2,1149.7L1399.2,1149.7z"/><path d="M1701.2,1166.2c0.3-1.1,17.9-31,17.9-31l-11.3,0.8L1701.2,1166.2z"/><path d="M1865,1104.9l7.4-2.8c0,0,9,56.4,28.2,62.9l-14.6,9.8L1865,1104.9z"/><path d="M1711.6,679.1c0,0,10.7,37.9,16.9,59.5c5.7,20.1,8.3,43.7,8.3,43.7l2.3-31.3L1711.6,679.1L1711.6,679.1z"/><path d="M1754.3,779.9c0,0,81.6-21.2,85.6-20.6c4,0.6,2-11,2-11L1754.3,779.9L1754.3,779.9z"/><path d="M1591.8,525l-1.7,8.3c0,0,15.3,3.8,29.6-3.8c19.9-10.6,29.6-24.2,29.6-24.2s-10.3,12.4-31.3,17.9S1591.8,525,1591.8,525
	L1591.8,525z"/><path d="M1391.4,622.5c0,0,2.8,51.7,6.4,66.1c3.5,14.4,5.1,15.6,5.1,15.6h8.3L1391.4,622.5L1391.4,622.5z"/><path fill="#fff" d="M1047.7,699.5c0-203.7-169.8-367.8-375.6-358.3c-184.8,8.4-331.1,153.4-341.3,338.2
	c-6,109.5,37.1,209.1,109.4,278.5c2,2,4,3.8,6,5.8c6.9,6.7,13.8,13.5,21,19.9C494,1007.9,561,1071,596.4,1125h185
	c32.7-51.5,102.6-117,129.3-141.1c6.3-5.8,12.6-11.7,18.6-17.8c3.1-3.1,6.1-6.1,9.2-9C1005.9,891.8,1047.7,800.6,1047.7,699.5
	L1047.7,699.5z"/><path d="M782.9,1127.7H595l-0.8-1.2c-35.3-53.7-101.8-116.4-128.8-140.8c-6.3-5.7-12.7-11.8-21-19.9c-2-2-4-3.8-6-5.8
	c-75.8-73-116-175.3-110.3-280.7C338.3,493.5,486.2,347,672,338.5c99.8-4.6,194.6,30.8,266.7,99.7s111.8,161.7,111.8,261.5
	s-39.1,190.8-109.8,259.5c-3.1,3.1-6.1,6-9.2,9c-6.3,6.3-12.6,12.3-18.7,17.8c-27.9,25.3-96.6,89.7-128.8,140.6L782.9,1127.7
	L782.9,1127.7z M598,1122.2h181.9c33-51.2,101.1-115.2,129-140.5c6.1-5.5,12.3-11.5,18.6-17.6c3.1-3.1,6.1-6.1,9.2-9
	c69.8-67.6,108.3-158.4,108.3-255.5s-39.1-189.6-110.1-257.4S770.5,339.5,672.2,344c-183,8.4-328.5,152.6-338.5,335.6
	C328,783.4,367.6,884,442.3,955.9c2,2,4.1,4,6.1,5.8c8.1,8.1,14.6,14.1,20.9,19.8C496.1,1005.9,562.2,1068.2,598,1122.2L598,1122.2z
	"/><circle cx="691.5" cy="700" r="322.7" fill="#9cdce6"/><path fill="#389570" d="M736.9,380.5c7.1,1.1,7.2,7.1,8.1,11c2.3,8.6-4.3,19.2-16.3,31.6c-17.5,17.9-57.4,23.6-57.4,23.6
			c-13,8.3-20.7-3.8-24.7-9.7c-3.8-5.8-4.9-13.5-9.8-18.4c-6.9-6.9-20.9,2.9-28.7,8.6s-24.1,8.9-33.4,9.8
			c-35.4,16.1,69.9,12.4,50.3,44.5c-35.6,31.4-78.8,33-123.9,47.9c-3.5,1.2-7.8,3.1-8.3,6.9c-0.3,2.1,0.9,4.4,0.5,6.6
			c-0.5,2.3-2.6,3.7-4.4,4.9c-10.6,6.6-21.9,11.7-33.9,15.3c-3.5,1.1-7.7,2.5-9.4,5.8c-2.6,5.1,2.1,10.9,7.1,13.8
			c4.9,2.9,10.9,5.2,13,10.6c0.3,17.5-27.9,26.1-26.1,43.4c1.4,12.3,16.4,17,28.7,19c25.9,4.1,54.8,10,69.5,31.6
			c5.4,7.8,8.4,17.3,14.6,24.5c13.2,15.3,38.5,18.1,47.9,36c3.7,6.9,4.1,15,4.3,22.9c0.5,33.4-5.2,67-16.9,98.5
			c-5.5,14.7-12.4,29.6-12.6,45.4c-0.2,12.3,3.7,24.2,7.2,36c1.2,3.8,2.3,8,1.4,11.8c-0.8,4-4.3,7.7-8.3,7.2c-2.6-0.3-4.6-2-6.6-3.7
			c-14.1-12.6-28.4-25-42.5-37.6c-16.9-14.9-34-30.1-46.8-48.8c-16.7-24.2-25.6-54.1-46.9-74.5c-15-14.4-36.8-25.3-40.6-45.7
			c-1.7-8.6,0.3-17.5,2.5-26.1c6.3-24.5,14-48.6,22.9-72.2c1.8-4.9,3.8-9.8,3.7-15c-0.2-8.4-5.5-15.6-10-22.9
			c-9.8-16-16-34.2-17.3-52.9c0,0,31.4-67.8,79.3-107.1C473.4,463.3,575.1,356.9,736.9,380.5L736.9,380.5z"/><path fill="#389570" d="M798.1,395.4c-19,8.6-36.3,28.2-43.3,47.9c-3.1,9-4.6,19-10.3,26.7c-4.1,5.7-10,9.8-15.3,14.3
			c-5.4,4.4-10.7,9.7-12.7,16.4c-2,6.7,0.3,15.2,6.9,17.9c1.7,0.8,3.7,1.2,4.6,2.8c0.8,1.4,0.5,3.2,0,4.8
			c-5.4,16.3-19.6,27.8-31.9,39.7c-17.9,17.6-32.8,38.7-40,62.7c-7.2,23.9-6,51.1,6.4,72.9c3.4,5.8,7.5,11.3,13,15.5
			c5.4,4,11.7,6.6,18.1,8.6c11.8,3.7,24.1,5.7,36.5,5.7c8.4,0,16.9-0.8,25,1.5c19.2,5.4,39.4-9.4,55.2,25.6
			c6.7,14.7,18.7,35.9,28.8,57.7c10.1,21.8-0.5,66.7,4.8,91.6c5.4,24.8,10,32.8,24.4,38c14.3,5.4,29.6-1.8,37.7-4.6
			c0,0,35.9-30.4,67.3-84.7c31.4-54.3,36.8-112.6,41.1-139.4c4.3-26.8-6.1-89.7-16.7-118.7c-10.4-29-38-93.6-89.7-138.3
			C856.4,415,798.1,395.4,798.1,395.4L798.1,395.4z"/><path fill="#389570" d="M843.5,982.6c-13,2.3-22.5-5.2-32.7-7.2c-4.6-0.9-9.5-0.6-14.1,0c-4.9,0.6-9.7,2.3-14.4,3.7
			c-36.3,10.7-75.9,8.3-111.8-4.1c-8-2.8-16-6-24.4-5.8c-5.7,0.2-11.2,1.8-16.6,3.7c-20.4,6.9-40.3,14.7-60,23.5
			c0,0,16.4,10.1,55.8,19.9s77.6,8.4,129-0.3c14.7-2.5,42.9-11.5,54.1-15.6C836,989.7,843.5,982.8,843.5,982.6L843.5,982.6z"/><path fill="#9cdce6" d="M768.1,521.7c2.3,5.5,8.1,8.1,14.1,8.4c17.9,0.8,36-2.1,53.7,1.2c13.5,2.6,26.1,8.6,39.4,11.8
			c6.3,1.5,14.7,1.4,17.3-4.6c2.6-5.8-2.9-12.1-8.7-14.7c-8.1-3.7-17.6-4.1-25.2-8.7c-7.7-4.8-12.6-13.2-20.9-16.9
			c-10.3-4.4-21.9-8.4-32.4-4c-14.4,6.1-23.8,10.3-36.2,19.6C767.7,515.1,766.4,517.7,768.1,521.7L768.1,521.7z"/><path fill="#9cdce6" d="M1001.5,608.2c-1.8,2-2.1,4.9-2.6,7.5c-0.8,4-1.8,8.3-4.9,11c-3.1,3.1-7.7,4-12,4.6
			c-4.3,0.6-8.7,1.5-12.1,4.3c-3.4,2.8-4.9,8.3-1.8,11.5c1.5,1.7,3.8,2.3,6.1,2.9c14.4,4.3,30.8,9,40.2,20.9L1001.5,608.2z"/><g><path d="M691.5,1024.7c-179,0-324.7-145.7-324.7-324.7s145.7-324.7,324.7-324.7s324.8,145.6,324.8,324.7
			S870.7,1024.7,691.5,1024.7z M691.5,379.4C514.8,379.4,371,523.3,371,700s143.9,320.6,320.6,320.6s320.6-143.9,320.6-320.6
			S868.4,379.4,691.5,379.4z"/><path d="M392.4,575.1c1.2,14.6,5.4,28.4,12.4,41.3c3.7,6.7,8.6,13,12,20.1c1.8,3.8,2.9,8,2.5,12.1c-0.5,4.1-2,8.3-3.5,12.1
			c-6.3,16.6-12,33.4-17,50.5c-2.5,8.4-4.9,17-6.9,25.6c-1.8,8-3.2,16.1-1.4,24.2c2.8,12.3,12,21.5,21.3,29.3
			c10.9,9,21.9,17.3,30.5,28.8c8.7,12,15.2,25.3,22.1,38.2c7.1,13.5,14.9,26.4,25,37.9c10.7,12.4,23.2,23.3,35.4,34.2
			c13.8,12.1,27.6,24.4,41.4,36.5c4.6,4,10.1,8.3,15.8,3.5c5.5-4.4,4.8-11.7,3.1-17.8c-2.3-8.4-5.2-16.7-6.7-25.5
			c-1.5-8.9-1.1-17.8,1.1-26.5c4-16.4,11.7-31.7,16.4-48c4.8-16.4,8.1-33.4,9.8-50.5c0.9-8.6,1.2-17.3,1.4-26.1
			c0-7.7,0-15.8-2.5-23.2c-3.8-12-14.1-19-24.7-24.7c-11.5-6.1-23.2-11.7-30.1-23.3c-3.8-6.4-6.7-13.7-11.2-19.6
			c-3.7-4.9-8.1-9.2-13.2-12.7c-10.7-7.5-23.6-11.7-36.3-14.6c-12.3-2.8-26.2-2.9-37.4-8.9c-5.1-2.8-9.5-7.1-9.7-13.2
			c-0.2-4.9,2.8-9.2,6-12.7c6.4-7.2,15.5-13,19-22.5c0.6-1.8,1.2-4,1.2-6c0-2.9-2.5-5.4-4.6-7.2c-5.1-4.1-13.7-6.1-15.8-12.9
			c-1.4-4.1,2-6.6,5.4-7.8c4-1.5,8.1-2.6,12.1-4.1c7.5-2.9,14.7-6.4,21.8-10.4c2.6-1.5,5.5-2.9,7.4-5.4c0.8-0.9,1.2-2,1.4-3.2
			c0.3-2.1-1.1-4.8-0.3-6.9c1.1-2.9,5.2-4,7.8-4.9c4.1-1.4,8.3-2.6,12.4-3.8c14.6-4.1,29.3-7.4,44-11.3c14-3.8,27.6-8.3,40.5-14.7
			c6.7-3.4,13-7.4,19-11.8c4-3.1,8.3-5.8,10-10.7c4-11.5-7.8-18.4-16.7-21.9c-11.8-4.6-24.4-6.6-36.3-10.6c-1.7-0.6-3.7-1.2-5.2-2.3
			c-0.3-0.2-0.9-0.8-0.9-0.8c-0.2-0.2-0.3-0.2,0-0.3c-0.2,0.2,0.5-0.5,0.9-0.9c0.8-0.8,1.7-1.2,2.6-1.7c4-2.1,9.2-2,13.7-2.9
			c6.3-1.2,12.4-2.9,18.3-5.8c5.4-2.6,9.8-6.7,15-9.5c5.5-3.1,12.6-6.1,17,0.2c3.8,5.4,5.2,12,8.9,17.3c5.7,8.3,14.1,15.3,24.5,10
			c2-1.1,3.5-1.2,5.8-1.5c3.8-0.8,7.7-1.5,11.5-2.6c10.6-2.8,21.3-6.4,30.8-12c5.1-2.9,9.4-6.6,13.5-10.7
			c4.8-4.9,9.8-10.1,13.3-16.1c2.3-4,3.7-8.4,2.8-13c-1.2-5.8-5.5-10.6-9.8-14.4c-2-1.8-4.9,1.1-2.9,2.9c4.4,4,9.5,9.2,8.9,15.5
			c-0.5,6-5.1,11.2-8.9,15.5c-4.4,5.1-9,10.3-14.6,14.1c-4.8,3.4-10.1,6-15.5,8.3c-8.9,3.7-18.4,6.3-27.8,8.1
			c-2.1,0.5-4.4,0.6-6.4,1.2c-1.7,0.5-3.2,1.7-4.9,2.3c-3.1,0.9-6.1,0.5-8.7-1.2c-4-2.5-6.9-6.6-9.4-10.6c-3.5-5.8-4.6-13-9.7-17.9
			c-8.4-8-21.9,1.7-29.1,6.9c-5.2,3.7-10.6,6-16.7,7.7c-5.8,1.5-11.8,2-17.6,3.2c-3.2,0.8-9.2,3.8-9.4,7.8c-0.2,3.5,4,5.4,6.7,6.4
			c4.9,2,10.3,3.2,15.3,4.4c6.4,1.7,12.9,3.2,19.2,5.4c5.2,1.8,10.9,4,15.2,7.7c3.4,3.1,4.6,6.7,2.9,11c-0.9,2.1-2.3,3.4-4.1,4.9
			c-3.2,2.8-6.7,5.2-10.3,7.5c-5.8,3.8-12.1,7.2-18.4,10.1c-27.1,12.3-57.2,16.4-85.4,25.2c-4.9,1.5-12.4,2.9-14.9,8.3
			c-1.4,3.1,1.1,7.4-0.9,10c-2.1,2.9-7.1,4.8-10.3,6.4c-7.5,4-15.3,7.4-23.5,10.1c-5.2,1.7-12,3.2-13.7,9.4
			c-1.5,5.8,3.2,11.2,7.7,14.3s13.8,5.7,12.6,12.3c-1.8,9.7-12,16-18.3,22.7c-6.3,6.7-10.6,16.1-5.2,24.8c6,9.8,19.3,12.4,29.8,14.1
			c25.5,4.1,54.8,10.1,68.7,34.2c3.7,6.4,6.4,13.3,11,19.3c3.7,4.6,8.3,8.3,13.2,11.5c10,6.3,21.9,10.3,30.5,18.7
			c11.2,11.2,9.8,28.8,9.2,43.4c-0.6,17.2-2.9,34.4-6.9,51.1c-4,16.9-10.1,32.7-16,48.8c-2.6,7.2-4.9,14.6-5.8,22.1
			c-1.1,8.4-0.3,16.7,1.4,24.8c1.8,8.1,5.2,16.1,6.6,24.4c0.6,3.8,0.3,8.9-3.8,10.7c-4.3,2-8.9-4-11.7-6.4
			c-13.5-12-27.1-23.9-40.6-35.9c-12.1-10.7-24.2-21.6-34.8-34c-9.8-11.7-17.3-24.7-24.4-38.2c-6.6-12.7-13-25.6-21.8-37.1
			c-8.3-11-18.9-19-29.4-27.8c-9.8-8.1-19.9-17.6-21.5-31c-1.1-8.9,1.4-17.6,3.7-26.1c2.1-8.4,4.4-16.7,7.1-25
			c2.6-8.4,5.4-16.9,8.3-25.3c2.8-8,6-15.8,8.7-23.8c2.3-6.9,2.5-13.5-0.3-20.2c-3.1-7.2-7.8-13.5-11.7-20.1
			c-7.2-12.9-11.8-26.4-12.9-41.1C396.4,572.4,392.3,572.4,392.4,575.1L392.4,575.1L392.4,575.1z"/><path d="M794.9,396.6c-11.7,5.4-21.9,13.5-29.9,23.8c-4,5.2-7.4,10.9-10,17c-2.6,6.1-4.3,12.7-6.3,19.2
			c-2.5,7.7-6.1,13.8-12.3,19.2c-5.4,4.6-11.3,8.6-16,14c-6.9,8-10.6,22.1-0.5,29.4c2.3,1.7,6.7,1.8,6,5.5
			c-0.8,3.7-2.8,7.2-4.6,10.3c-3.5,6-8.1,11.2-13,16.1c-10,10.1-20.6,19.5-29.4,30.7c-17.8,22.4-30.1,49.5-29.6,78.4
			c0.2,14,3.4,28.1,10,40.5c3.2,6.1,7.4,12,12.6,16.6c5.4,4.6,11.8,7.7,18.4,9.8c15.5,5.2,31.3,6.6,47.5,6.4c3.8,0,7.8,0,11.7,0.6
			c2.9,0.5,5.7,1.4,8.6,1.8c4.1,0.6,8.3,0.6,12.4,0.6c8.6-0.2,17.3-0.3,24.5,5.1c10.3,7.5,14.4,21.3,20.1,32.2
			c7.2,14.1,14.7,27.9,21.3,42.3c4.8,10.3,4.9,22.1,4.8,33.1c-0.2,12.6-1.2,25-1.4,37.4c-0.2,11.7,1.4,22.9,4.6,34
			c2.5,8.4,5.8,16.7,13,22.1c9.2,6.9,21,8.1,32.1,5.7c5.7-1.2,11-3.4,16.6-5.4c2.5-0.9,1.4-4.9-1.1-4c-12.4,4.3-25,9.4-38,4.1
			c-7.8-3.2-12.9-8.6-16.1-16.4c-4.1-10.4-6.6-22.1-6.9-33.3c-0.3-12,0.6-23.9,1.1-35.9c0.5-11,0.8-22.5-1.5-33.4
			c-1.2-5.4-3.4-10.3-5.8-15.2c-3.5-7.2-7.1-14.4-10.7-21.6c-3.4-6.4-6.7-12.9-10-19.3c-2.9-5.7-5.4-11.7-8.4-17.2
			c-4.9-8.4-11.8-15.5-21.5-17.8c-7.8-1.8-15.8-0.6-23.8-1.1c-5.1-0.3-9.7-1.8-14.7-2.5c-7.8-0.9-15.6-0.2-23.5-0.5
			c-15.2-0.6-32.8-3.7-45.9-12c-12.4-7.8-19.5-22.7-23-36.5c-7.2-28.4,0.6-58,16-82.4c7.5-12,16.7-22.7,26.8-32.5
			c9.5-9.2,19.9-18.1,26.7-29.8c2.3-3.8,6.7-11.3,4-15.8c-1.4-2.3-3.8-2.6-6.1-3.8c-2.6-1.4-4.3-4-5.1-6.7
			c-4.3-14.7,13.3-24.1,22.1-32.2c4.9-4.6,8.3-9.8,10.7-16.1c2.5-6.6,3.8-13.5,6.4-20.1c4.6-12.1,12.7-23,22.9-31.1
			c4.9-4,10.6-7.4,16.4-10.1C799.5,399,797.4,395.4,794.9,396.6L794.9,396.6L794.9,396.6z"/><path d="M570.7,998.1c18.3-8.1,36.8-15.5,55.7-21.9c9.7-3.4,18.9-6.3,29.1-3.8c9,2.1,17.6,6,26.5,8.4c17.6,4.9,36,7.4,54.3,7.2
			c9-0.2,17.9-0.9,26.8-2.3c9.2-1.5,17.9-4.1,26.8-6.6c5.5-1.5,11.3-2.3,17-1.8c4.3,0.3,8.4,1.8,12.4,3.4c8.1,3.1,15.8,5.7,24.7,4.3
			c2.6-0.5,1.5-4.4-1.1-4c-8.6,1.4-16.3-2-24.2-4.9c-7.8-2.9-15.6-3.4-23.8-2.1c-9,1.5-17.6,4.9-26.7,6.9
			c-9.4,1.8-18.7,2.9-28.2,3.2c-19,0.6-38-1.8-56.3-6.9c-9.2-2.5-17.9-6.4-27.1-8.6c-9.2-2.1-17.5-0.8-26.2,2.1
			c-21,6.9-41.6,15-61.7,24.1C566.1,995.7,568.2,999.2,570.7,998.1L570.7,998.1L570.7,998.1z"/><path d="M766.2,522.7c4.3,9.2,14.3,9.7,23.2,9.5c12.1,0,24.1-1.1,36.2-0.2c12,0.9,23.2,4.8,34.5,8.6c8.3,2.9,18.6,7.4,27.5,4.6
			c7.8-2.3,9.8-10.9,5.1-17.2c-6.3-8.3-17.3-8.9-26.5-12c-10-3.4-15.2-12.1-23.6-17.8c-4.1-2.8-9-4.4-13.8-5.8
			c-4.9-1.5-10.1-2.6-15.2-2.3c-5.7,0.3-10.7,2.9-16,5.1s-9.8,4.4-14.6,7.1c-4.8,2.6-9.4,5.7-13.7,8.9c-3.8,2.8-4.8,6.4-3.2,10.9
			c0.9,2.5,4.9,1.4,4-1.1c-1.8-5.2,2.1-6.9,6-9.5c3.5-2.3,7.1-4.6,10.7-6.4c3.4-1.8,6.7-3.4,10.3-4.9c4.3-2,8.7-4.3,13.5-5.4
			c9-1.8,20.1,1.7,28.1,6.1c7.1,3.8,11.5,10.9,18.1,15.3c7.4,4.9,16.4,5.5,24.4,8.6c4,1.5,8.4,4.4,9.7,8.7c1.4,4.8-2.5,7.7-6.7,8.1
			c-8,0.9-16.9-2.9-24.2-5.5c-9.2-3.1-18.3-6.3-27.8-7.7c-11.3-1.5-22.7-0.9-34-0.6c-9,0.3-23.3,2.8-28.1-7.4
			C768.7,518.2,765.1,520.2,766.2,522.7L766.2,522.7z"/><path d="M998.7,608.7c-1.2,1.7-1.5,3.2-1.7,5.4c-0.3,2.8-0.9,5.5-2,8c-2.6,5.4-8.1,6.6-13.5,7.5c-7.7,1.4-18.4,4.8-17,14.7
			c0.6,4.1,3.8,6.3,7.5,7.5c4.8,1.5,9.5,2.8,14.3,4.3c9.5,2.9,18.7,6.9,25.2,14.9c1.7,2.1,4.6-0.9,2.9-2.9
			c-5.4-6.7-12.9-10.9-20.9-14c-4.3-1.7-8.9-2.9-13.3-4.1c-3.5-1.1-10.9-1.8-11.5-6.1c-1.5-10.3,15.8-9.7,21.8-12.1
			c4-1.7,6.9-4.4,8.6-8.3c0.8-1.8,1.4-4,1.8-6c0.5-2.3,0.2-4.6,1.5-6.4C1003.9,608.5,1000.3,606.6,998.7,608.7L998.7,608.7
			L998.7,608.7z"/></g><path d="M1750.4,780.5c4.3,11.5,8.9,23.2,14.6,34c1.2,2.3,4.9,0.3,3.5-2.1c-5.5-10.6-10-21.8-14.1-33
	C1753.5,776.8,1749.5,777.9,1750.4,780.5L1750.4,780.5L1750.4,780.5z"/><path d="M1190.5,542.7c13.8,14.7,28.5,28.5,43.3,42.3c16.4,15.3,33,30.7,50,45.6c3.2,2.9,6.6,5.7,9.8,8.4c3.2,2.8,5.7,4.8,10.1,3.8
	c3.4-0.8,6.7-2,10.1-2.9c14.1-4.3,28.2-8.6,42.3-12.9c11.2-3.4,22.4-6.7,33.7-10.3c2.6-0.8,1.5-4.8-1.1-4
	c-23.6,7.2-47.1,14.3-70.7,21.5c-3.7,1.1-7.5,2.3-11.2,3.4c-2.1,0.6-4.8,2-6.9,0.9c-2-0.9-3.7-2.9-5.4-4.3c-1.7-1.4-3.4-2.8-4.9-4.3
	c-16.3-14.1-32.1-28.5-47.7-43.3c-16.4-15.3-32.8-30.7-48.3-46.9C1191.5,537.8,1188.6,540.8,1190.5,542.7L1190.5,542.7L1190.5,542.7
	z"/><path d="M1154.4,581.6c11.2,17.2,23.3,33.9,35.9,50.2c16.3,21,33.4,41.7,52.9,60c13.5,12.9,29.1,26.2,47.7,30.8
	c11.5,2.9,22.9,2,34.4,0.2c10.6-1.7,21.2-3.7,31.6-5.8c17.3-3.5,34.7-7.2,52-11.2c2.6-0.6,1.5-4.6-1.1-4c-13.8,3.2-27.6,6.1-41.4,9
	c-11,2.3-22.1,4.6-33.1,6.4c-9.7,1.7-19.6,3.7-29.4,3.1c-20.7-1.2-37.1-13.2-52-26.5c-19.5-17.3-36.5-37.4-52.6-57.7
	c-14.4-18.3-28.4-37.1-41.1-56.7C1156.6,577.3,1152.9,579.3,1154.4,581.6L1154.4,581.6L1154.4,581.6z"/><path d="M1736.8,752.3c0.5,10.4-1.5,21.2-2.6,31.4c-1.5,13.3-3.1,26.8-3.1,40.3c0,2.6,4.1,2.8,4.1,0c0-13.5,1.5-26.8,3.1-40.3
	c1.1-10.3,3.1-21,2.6-31.4C1740.9,749.5,1736.8,749.5,1736.8,752.3L1736.8,752.3L1736.8,752.3z"/><g><path d="M1586.2,904.3c-8.3-5.4-12.1-16.4-14.6-25.6c-3.5-12.6-5.4-25.5-6.7-38.5c-1.4-12-2.1-23.9-3.5-35.9
		c-0.5-4.1-0.9-8.1-1.8-12.3c-0.5-2-1.2-3.8-1.8-5.7c-1.2-3.2-4.3-11,0.3-13.3c1.8-0.9,5.2,1.5,6.6,2.6c1.8,1.5,3.4,3.5,4.6,5.5
		c2,3.4,3.1,7.1,4.1,10.7c2.1,7.8,3.8,16.1,3.7,24.2c0,2.6,4.1,2.6,4.1,0c0.2-7.8-1.4-16-3.4-23.5c-1.8-7.4-4.4-15.2-10.6-20.2
		c-2.5-2-6.9-4.8-10.1-3.5s-5.2,5.4-5.5,8.6c-0.3,6.1,3.4,11.8,4.4,17.8c2.3,11.7,2.8,23.8,3.8,35.6c1.4,14.6,3.1,29.3,6.4,43.6
		c2.9,11.8,7.1,26.2,17.9,33.3C1586.3,909.2,1588.5,905.6,1586.2,904.3L1586.2,904.3L1586.2,904.3z"/><path d="M1603.8,795.5c-2.9-9.7-4.9-19.6-8-29.3c-1.5-4.6-3.2-9.2-4.8-13.8c-1.2-3.5-2.3-10.4,2.8-11.5c6.1-1.4,9.2,5.2,11,9.8
		c2,5.2,3.7,10.6,5.1,16c2.9,11.2,4.9,22.5,8.1,33.7c0.8,2.6,4.8,1.5,4-1.1c-2.9-10.3-4.9-20.7-7.4-31c-1.2-5.1-2.6-10.1-4.3-15
		c-1.5-4.3-3.1-8.9-6.1-12.4c-4.4-5.2-14.3-6.3-17.3,0.9c-1.5,3.5-1.1,7.7,0,11.2c1.4,4.4,3.1,8.6,4.4,13c1.4,4.3,2.8,8.7,4,13.2
		c1.7,5.7,2.8,11.7,4.4,17.3C1600.6,799.2,1604.6,798.1,1603.8,795.5L1603.8,795.5L1603.8,795.5z"/><path d="M1609,750.3c0.5-4.8,6.1-2.9,8.3-0.9c2.1,1.8,3.8,4,5.1,6.4c3.1,6.1,5.1,13.3,7.1,19.8c4.6,15.6,8.7,31.6,10.4,47.7
		c0.3,2.6,4.4,2.6,4.1,0c-2.3-19.8-7.2-39.7-14-58.4c-2.6-7.2-4.6-14.3-10.7-19.2c-5.2-4.3-13.8-3.1-14.6,4.6
		C1604.6,753,1608.7,752.9,1609,750.3L1609,750.3L1609,750.3z"/><path d="M1636.5,783.2c1.2-7.4,7.2,1.4,8.7,4.3c2.3,4.9,3.4,10.3,4.6,15.5c2,8.7,2.3,17.9,1.8,26.8c-0.9,17.3-4.3,35.7-12,51.4
		c-1.8,3.7-5.4,11.5-10.1,12c-2.6,0.3-2.6,4.4,0,4.1c5.8-0.5,9.7-6.4,12.3-11c4.6-8.3,7.5-17.6,9.7-27c5.2-21.6,6.3-43.9,0.3-65.3
		c-1.7-5.8-4.3-13.8-10.1-17c-4.4-2.5-8.4,0.9-9.2,5.4C1632,784.8,1636,786,1636.5,783.2L1636.5,783.2L1636.5,783.2z"/><path d="M1582,814.7c2-7.7,3.2-16.6,1.1-24.4c-1.5-6.1-3.4-12.1-5.1-18.1c-0.9-3.4-1.8-6.9-2.6-10.4c-0.8-3.5-1.5-8.6,1.5-11.2
		c4.6-4,9.2,1.5,10.7,5.7c0.9,2.5,4.9,1.4,4-1.1c-1.7-4.6-5.4-9.8-10.6-10.1c-9.4-0.6-10.9,9.2-9.8,16.3c1.4,8.4,4.1,16.9,6.4,25.2
		c0.6,2.1,1.4,4.3,1.7,6.6c1.1,6.7,0.2,13.8-1.5,20.4C1577.4,816.1,1581.4,817.1,1582,814.7L1582,814.7L1582,814.7z"/></g><path d="M1654.6,848.6c15.3-2.5,30.2-7.5,44.9-12c19.3-6,38.7-12.3,58.1-17.6c10.1-2.9,20.2-5.5,30.5-7.7c2.6-0.5,1.5-4.6-1.1-4
	c-37.6,7.8-73.8,21.6-110.7,31.9c-7.5,2.1-15,4.1-22.7,5.4C1650.9,845.1,1652,849,1654.6,848.6L1654.6,848.6L1654.6,848.6z"/><path d="M1838.9,750.9c4.6,20.2,8.6,40.6,11.2,61.2c1.8,14.3,3.5,29.1,1.4,43.4c-1.8,12.7-7.7,23.8-18.3,31.4
	c-8.3,6-17.6,10-27.5,12.1c-21,4.6-42.6,7.2-64,9.8c-23.6,2.9-47.4,5.7-71.2,8.1c-8.1,0.9-16.3,1.8-24.4,2.6
	c-20.6,1.8-41.9-2.3-58.6-14.9c-2.1-1.5-4.1,2-2.1,3.5c14.7,11.2,33.3,16,51.7,15.8c8.9,0,17.9-1.4,26.8-2.3
	c23.8-2.5,47.5-5.1,71.3-8.1c22.9-2.8,45.7-5.5,68.3-10.1c21.6-4.4,43.6-16.4,50.2-38.8c4.4-15.2,3.1-31.4,1.2-46.8
	c-2.6-23-6.9-45.9-12.1-68.4C1842.3,747.2,1838.3,748.3,1838.9,750.9L1838.9,750.9L1838.9,750.9z"/><path d="M1679,550c17.8,5.4,35.7,10.3,53.1,16.7c8.9,3.4,17.8,6.9,26.2,11.5c6.3,3.5,13,7.5,17.3,13.5c1.5,2.1,5.1,0.2,3.5-2.1
	c-7.2-10.3-20.1-16.3-31.3-21c-14.7-6.4-29.9-11.3-45.2-16c-7.5-2.3-15-4.4-22.7-6.7C1677.4,545.2,1676.3,549.3,1679,550L1679,550
	L1679,550z"/><path d="M1582.8,541.5c-15.2-0.6-30.5,0.6-45.6,2.8c-11.5,1.7-23,4-33.9,8.1c-24.8,9.4-48.8,21.6-72.5,33.3
	c-14.6,7.1-29.3,14.1-44.2,20.6c-0.9,0.3-1.1,1.5-0.9,2.3c5.8,29.9,11.8,60.3,21,89.4c1.5,4.9,3.1,11.3,6.6,15.5
	c2.8,3.2,5.8,0.8,8.9-0.3c17.2-6.1,34.8-11.2,52.3-16.6c14.7-4.4,29.4-8.9,44.2-13.2c2.6-0.8,1.5-4.8-1.1-4
	c-30.2,8.9-60.3,17.8-90.2,27.6c-2.8,0.9-5.5,1.8-8.1,2.8c-0.8,0.3-1.5,0.6-2.3,0.9c-0.2,0-1.1,0.3-1.2,0.6c0.3-0.3,1.1,0,1.1,0
	s-0.6-0.6-0.8-0.8c-0.6-0.9-1.1-1.8-1.5-2.8c-1.2-2.6-2.1-5.2-3.1-8c-5.8-17.3-9.8-35.3-13.8-53.1c-2.9-13-5.7-26.1-8.1-39.1
	c-0.3,0.8-0.6,1.5-0.9,2.3c26.1-11.3,51.5-24.2,77.1-36.3c11.2-5.4,22.5-10.6,34.2-15.2c10.4-4.1,21.2-6.9,32.2-8.7
	c16.6-2.9,33.6-4.3,50.5-3.7C1585.5,545.8,1585.5,541.7,1582.8,541.5L1582.8,541.5L1582.8,541.5z"/><path d="M1708.2,675c6.9,20.4,15.6,40.2,23.2,60.4c2.9,7.8,5.1,15.6,7.1,23.6c1.8,7.4,4.3,15.2,9.7,20.7c5.2,5.2,10.9-1.1,16-3.2
	c3.2-1.4,6.7-2.3,10.1-3.4c12.1-3.8,24.2-7.5,36.2-11.5c11.5-3.7,23.2-7.4,34.4-12.3c2.6-1.1,6-2.3,8-4.4c1.2-1.4,0.6-2.8,0.2-4.4
	c-6-20.6-13.2-41-21.2-60.7c-11.8-29-25.6-58.3-45.7-82.5c-2.3-2.8-4.6-5.4-7.1-7.8c-1.8-1.8-4.8,1.1-2.9,2.9
	c19.5,20.1,32.8,45.9,44.2,71c9.8,21.6,18.1,44.2,25.3,66.7c1.4,4.4,2.8,9,4.1,13.7l0.5-2c-1.5,2-5.2,3.2-7.8,4.3
	c-5.2,2.3-10.6,4.1-16,6c-13,4.6-26.2,8.6-39.4,12.7c-5.4,1.7-10.9,3.4-16.3,5.1c-3.2,1.1-6.6,2-9.7,3.5c-2.6,1.4-7.2,5.8-10,3.5
	c-2.8-2.5-5.1-7.2-6.3-10.7c-2.8-7.8-4.1-16.1-6.7-24.1c-7.7-23.2-18.1-45.2-25.9-68.3C1711.3,671.4,1707.3,672.5,1708.2,675
	L1708.2,675L1708.2,675z"/><path d="M1527.3,929.3c19.2,26.7,31.4,59.2,36.3,91.6c0.5,2.6,4.4,1.5,4-1.1c-4.9-32.7-17.5-65.6-36.8-92.5
	C1529.3,925,1525.7,927.1,1527.3,929.3L1527.3,929.3L1527.3,929.3z"/><path d="M1725.4,912.7c6.1,68.3-0.9,137.6-15.5,204.4c-4,18.4-8.6,36.7-13.8,54.8c-0.8,2.6,3.2,3.7,4,1.1
	c18.9-65.8,30.5-134.4,31.4-202.8c0.3-19.2-0.3-38.3-2.1-57.5C1729.3,910.1,1725.1,910.1,1725.4,912.7L1725.4,912.7z"/><g><path d="M1151.5,500.1c-5.1-8.4-9.7-16.4-12.1-26.1c-1.2-4.9-1.8-10-1.5-15c0.2-2,0.5-4.8,1.7-6.4c2.3-3.1,6-1.7,7.5,1.2
		c2.1,4.3,3.4,9.2,5.4,13.7c2.3,5.1,4.9,10.1,7.8,14.9c5.4,9.2,12.1,17.5,17.8,26.5c6.3,10,10.6,20.7,11.8,32.5
		c0.3,2.6,4.4,2.6,4.1,0c-1.2-11.7-5.1-22.4-11-32.4c-6.6-10.9-14.7-20.7-21-31.9c-3.4-6-6.4-12.1-8.9-18.6
		c-1.5-4.1-2.6-9.8-7.4-11.5c-4.3-1.5-8.9,0.9-10.6,4.9c-2.1,4.9-1.8,10.9-1.2,16.1c1.5,12.9,7.5,23.3,14,34.2
		C1149.2,504.4,1152.7,502.4,1151.5,500.1L1151.5,500.1L1151.5,500.1z"/><path d="M1144.3,517c1.2,13,6.7,25.3,15.8,34.7c1.8,2,4.8-1.1,2.9-2.9c-8.3-8.6-13.5-19.9-14.6-31.7
		C1148.3,514.4,1144.1,514.4,1144.3,517L1144.3,517L1144.3,517z"/><path d="M1123.6,503.6c-6.9-9-13.5-18.1-19.9-27.6c-3.1-4.6-6.1-9.4-9-14.1c-2.8-4.6-8-11.7-5.1-17c5.7-10.3,19.6,14.3,22.1,18.3
		c4.3,6.9,8.4,14.1,14,20.2c5.5,6.1,12,13.7,19.6,17c2.5,1.1,4.6-2.5,2.1-3.5c-7.5-3.4-13.8-10.7-19.2-16.7
		c-6.6-7.5-11.3-16.7-16.7-25.2c-4.1-6.3-14.4-23.2-23.6-14.6c-4.1,3.8-3.7,9.8-1.5,14.7c2.5,5.5,5.8,10.7,9,16
		c7.7,12,16,23.5,24.5,34.8C1121.6,507.9,1125.3,505.8,1123.6,503.6L1123.6,503.6L1123.6,503.6z"/><path d="M1122.8,502.9c-8.1-3.5-15-9.7-19.9-17c-4.8-7.2-8.3-15-12.9-22.2c-1.8-3.1-4.3-6.4-7.7-8.1c-3.7-1.7-7.7,0-9.2,3.8
		c-1.8,4.4,0.8,10.6,2.3,14.7c1.8,5.4,4.1,10.6,6.9,15.5c6.1,11.2,14.4,21.2,24.2,29.3c2,1.7,5.1-1.2,2.9-2.9
		c-15.6-12.9-27.8-31-32.5-50.8c-0.5-2.1-0.6-6.6,2.8-6.1c1.4,0.2,2.6,1.7,3.5,2.6c2.6,2.9,4.4,6.4,6.3,10c3.4,6.4,6.7,12.7,11,18.6
		c5.1,7.1,12,13,20.1,16.6C1123.3,507.5,1125.3,503.9,1122.8,502.9L1122.8,502.9L1122.8,502.9z"/><path d="M1097.2,503.6c-2.6-3.4-4.8-6.9-7.4-10.3c-1.5-2.1-3.2-4.4-5.1-6.4c-1.4-1.7-2.9-3.4-5.1-3.8c-2.6-0.6-6,0-7.8,2
		c-2.3,2.3-2,5.8-1.4,8.9c1.4,7.7,6,14.4,10.6,20.6c5.4,7.1,11.7,13.3,18.6,18.9c2,1.7,5.1-1.2,2.9-2.9
		c-6.6-5.2-12.6-11.2-17.8-17.8c-2.6-3.4-5.2-7.1-7.2-10.9c-1.8-3.4-3.7-7.8-3.4-11.7c0.3-3.2,4.1-3.7,6.1-1.7c2,2,3.5,4.1,5.2,6.3
		c2.8,3.7,5.2,7.5,8,11.2C1095.2,507.8,1098.9,505.8,1097.2,503.6L1097.2,503.6L1097.2,503.6z"/><path d="M1086.5,515.3c-3.5-2-8.7-3.8-12-0.5c-3.4,3.5-1.2,8.9,1.4,12.1c5.7,7.4,12.4,14.4,19.2,20.6c6.7,6.1,13.8,12,21.2,16.7
		c4.6,2.9,9.7,5.4,14.6,7.8c9.4,4.8,19.2,9.5,29.6,11.7c2.6,0.6,3.7-3.4,1.1-4c-14.3-3.1-27.9-10.6-40.6-17.6
		c-5.2-2.9-10-6.9-14.7-10.7c-4.9-3.8-9.5-8-14-12.6c-3.2-3.4-6.4-6.9-9.7-10.4c-2-2.3-6-5.7-5.7-9c0.3-4,5.5-1.5,7.5-0.5
		C1086.6,520.2,1088.8,516.5,1086.5,515.3L1086.5,515.3L1086.5,515.3z"/></g><path d="M1580.8,544.1c4.1,13,19.2,19.2,31.3,22.2c14.7,3.5,30.7,2.8,44.9-2.1c8.9-3.1,17.3-7.8,23.8-14.7c1.8-2-1.1-4.9-2.9-2.9
	c-13,14.1-34.7,19-53.2,17.6c-7.8-0.6-15.6-2.5-22.9-5.5s-14.6-7.8-17-15.5C1584,540.4,1580,541.5,1580.8,544.1L1580.8,544.1
	L1580.8,544.1z"/><path d="M1584.6,544.7c3.8-6.1,6.9-12.4,9.2-19.2c0.3-1.1-0.5-2.3-1.5-2.6c-1.1-0.3-2.1,0.3-2.6,1.5c-2.1,6.4-5.1,12.4-8.7,18.3
	C1579.6,544.9,1583.2,546.9,1584.6,544.7L1584.6,544.7z"/><path d="M1666.5,491.1c-1.8,11.7-0.8,23.9,1.1,35.6c1.4,9,5.7,21.6,15.3,24.5c2.6,0.8,3.7-3.2,1.1-4c-4.6-1.4-7.4-6.3-9.2-10.3
	c-1.8-4-2.9-8.4-3.5-12.9c-1.5-10.3-2.3-21.5-0.8-31.9C1671,489.5,1667,488.5,1666.5,491.1L1666.5,491.1L1666.5,491.1z"/><path d="M1501.2,907.9c-14.9-27.9-33-53.4-53.1-77.8c-18.4-22.4-36.7-45.6-60.4-62.6c-7.7-5.5-15.6-10.3-24.8-12.7
	c-9-2.5-18.6-2.8-27.9-1.2c-13.3,2.1-25.9,8-37.3,14.9c-10.3,6.1-19,13.8-25.8,23.8c-23.2,34-18.7,79.6-6.9,116.9
	c9.5,30.2,19.9,60.1,30.4,89.9c12.4,35.4,25,70.9,38.5,106c4.6,12,9.2,24.1,14.4,35.7c3.2,7.2,5.7,14.6,14.3,16.3
	c10.3,2,21.5-1.2,31.3-4.1c15.3-4.4,30.7-10.1,45.6-16.3c11.5-4.8,23-10.1,32.8-17.6c5.2-4,11.2-9.2,12.3-16.1
	c0.5-2.6-0.3-4.9-0.9-7.2c-1.1-3.7-2.3-7.4-3.5-10.9c-4.1-12.4-8.6-24.8-13-37.1c-12.9-35.1-26.4-70.1-40.6-104.8
	c-12.4-30.2-25-61-41.4-89.6c-2.3-4.1-4.9-8.3-7.8-12c-1.5-2.1-5.2,0-3.5,2.1c6.6,8.7,11.7,18.7,16.6,28.5
	c7.2,14.4,14,29.3,20.4,44.2c14.9,34.4,28.7,69.3,41.9,104.4c9.2,24.4,18.6,48.8,26.4,73.8c0.6,2.1,1.5,4.3,1.8,6.4
	c-0.2-0.8,0,0.9,0,1.4c-0.2,1.2-0.8,2.5-1.2,3.5c-1.7,3.1-4.3,5.7-6.9,7.8c-9,7.8-20.2,13.2-31.1,17.8
	c-14.3,6.1-29.1,11.5-44.2,16.1c-10.1,3.2-22.2,7.4-33,5.5c-2.3-0.5-4.8-1.2-6.4-3.1c0.5,0.5-0.3-0.5-0.5-0.8
	c-0.3-0.5-0.6-1.1-0.9-1.5c-4.4-8.1-7.8-16.9-11.2-25.5c-12.7-31.6-24.2-63.7-35.6-95.7c-11.7-32.8-23.2-65.8-34-98.8
	c-3.5-10.7-7.2-21.5-10.1-32.4c-5.7-21.5-7.7-44.6-3.4-66.7c4.3-22.5,15.5-42.6,35.1-55.1c19.3-12.3,42.9-21.6,65.8-14.7
	c9,2.8,17.2,7.8,24.7,13.5c11.5,8.6,21.8,18.7,31.3,29.3c9.5,10.6,18.4,21.6,27.5,32.5c10,12,19.5,24.1,28.2,37
	c8.4,12.4,16.1,25.3,23.2,38.7C1498.9,912.4,1502.4,910.2,1501.2,907.9L1501.2,907.9L1501.2,907.9z"/><path d="M1563.3,953.5c0.6,45.6,0.3,91-1.1,136.5c-0.8,22.5-1.7,44.9-2.8,67.5c-0.5,10.1-1.7,20.2-1.7,30.4c0,1.1,0.2,2,0.2,3.1
	c1.2,14.3,5.2,28.4,11.8,41.1c10.7,20.6,29.3,35.4,51.8,41.1c12,3.1,24.4,3.5,36.7,3.5c13.2-0.2,26.4-1.1,39.4-2.5
	c28.5-3.1,56.9-8,85-14c24.7-5.4,49.4-11.3,73.6-19c7.8-2.5,15.6-5.1,23.3-8.3c3.7-1.5,8.9-3.4,11-7.2c3.4-5.8,2.1-14.6,1.7-21
	c-1.1-11.5-3.2-22.7-5.7-33.9c-4.9-23-11-46.3-20.1-67.9c-1.2-3.1-2.6-6.1-4.3-8.9c-0.5-0.8-1.4-1.2-2.3-0.9
	c-17.2,4.8-34.4,9.5-51.5,14.3c-27.5,7.7-54.9,15.2-82.5,22.9c-6.3,1.7-12.6,3.5-18.9,5.2c-2.6,0.8-1.5,4.8,1.1,4
	c17.2-4.8,34.4-9.5,51.5-14.3c27.5-7.7,54.9-15.2,82.4-22.9c6.3-1.7,12.6-3.5,18.9-5.2l-2.3-0.9c4.1,6.7,6.6,14.7,9.2,22.2
	c3.8,11.3,7.2,22.9,10.1,34.4c3.1,12,5.8,24.1,8,36.3c1.5,9.2,3.1,18.7,2.5,28.2c-0.2,2.3-0.3,5.1-1.8,7.1c-0.6,0.9-2.1,1.7-3.5,2.5
	c-5.7,3.1-12,5.2-18.1,7.4c-21.5,7.4-43.7,13-65.8,18.3c-27.5,6.4-55.2,11.8-83.1,15.6c-24.7,3.4-50,6-74.8,4.1
	c-24.5-1.8-47.4-11.8-61.8-32.2c-9.2-13-14.6-28.7-16.7-44.3c-0.5-4-0.6-7.7-0.5-11.7c1.4-21.9,2.5-44,3.4-66.1
	c1.7-43.9,2.6-87.7,2.5-131.6c0-10.7-0.2-21.6-0.3-32.4C1567.4,950.9,1563.3,950.9,1563.3,953.5L1563.3,953.5L1563.3,953.5z"/><path d="M1469.1,1119.3c7.4,20.6,15.8,41,22.2,61.8c0.8,2.6,4.8,1.5,4-1.1c-6.4-20.9-14.9-41.3-22.2-61.8
	C1472.2,1115.6,1468.2,1116.7,1469.1,1119.3L1469.1,1119.3z"/><path d="M1865.6,1104.1c19.5-6.1,38.3-14,57.2-21.8c2.5-1.1,1.4-5.1-1.1-4c-18.9,7.8-37.7,15.6-57.2,21.8
	C1861.9,1100.9,1863,1104.9,1865.6,1104.1L1865.6,1104.1z"/><path d="M1888.2,1174.3c10.4-4.3,21-8.1,31.9-11.5c2.6-0.8,1.4-4.8-1.1-4c-10.7,3.4-21.5,7.1-31.9,11.5c-1.1,0.5-1.8,1.4-1.4,2.6
	C1885.9,1173.9,1887.1,1174.8,1888.2,1174.3L1888.2,1174.3L1888.2,1174.3z"/><path d="M1923.3,1082c16.4-7.8,38.8-17.5,54.9-3.8c7.5,6.4,8.7,16.1,9,25.3c0.5,10.1,1.1,20.2,2.6,30.4c3.1,19.5,8.6,38.3,13.3,57.5
	c3.5,14.7,5.5,29.4,5.1,44.6c-0.2,5.8-1.2,12-4.6,16.7c-4.9,6.7-13.2,9.2-21,10.4c-2.6,0.5-1.5,4.4,1.1,4c14-2.1,25.6-9.5,27.9-24.2
	c0.9-5.4,0.8-10.9,0.6-16.4c-0.3-8.7-0.8-17.6-2.8-26.2c-4.8-21.3-11.3-42.3-15-64c-2-11.5-2.6-22.9-3.1-34.5
	c-0.5-9.4-2.1-18.9-9.2-25.6c-17.5-16.6-42.6-6.6-61,2.3C1918.7,1079.6,1920.8,1083.2,1923.3,1082L1923.3,1082L1923.3,1082z"/><path d="M1520.8,622.5c0.3,12.6-1.2,25.3-2.5,37.7c-1.8,19.2-4.1,38.5-6.7,57.7c-2.5,18.9-5.1,37.9-8.1,56.7
	c-2,12.3-4,24.7-6.9,36.8c-5.7,22.5-10.7,45.2-16.4,67.6c-0.6,2.6,3.4,3.7,4,1.1c5.2-20.6,10-41.3,15-61.8c3.1-12.3,5.5-24.5,7.5-37
	c6.1-37.9,11.2-76.1,15-114.3c1.5-14.7,3.5-29.8,3.1-44.5C1525,619.9,1520.7,619.7,1520.8,622.5L1520.8,622.5L1520.8,622.5z"/><path d="M1462.1,1047c8.7,14.6,20.4,27.8,32.8,39.3c12.6,11.5,26.5,22.4,42.3,29.1c7.1,3.1,14.6,5.4,22.4,5.4c2.6,0,2.8-4.1,0-4.1
	c-14.4-0.2-28.1-7.8-39.6-15.6c-14.3-9.7-27.1-21.5-38.3-34.5c-5.8-6.7-11.3-14-16-21.6C1464.4,1042.6,1460.7,1044.7,1462.1,1047
	L1462.1,1047L1462.1,1047z"/><path d="M1652.6,497.7c0.3-0.5-0.8,0.9-1.1,1.2c-1.4,1.5-2.9,3.1-4.6,4.4c-6.1,5.4-13,9.8-20.2,13.7c-13.5,7.1-28.5,11.2-42.2,2.3
	c-13-8.3-23-24.7-26.1-39.7c-1.8-9.2-2-18.3-0.8-27.6c1.2-9.5,2.5-19,2.8-28.5c0.3-7.1-0.3-14.1-0.3-21.2c0-5.1,1.5-10.7,7.7-11
	c2.6-0.2,2.8-4.3,0-4.1c-12.4,0.5-11.8,13.3-11.5,22.4c0.3,10.4-0.2,20.9-1.2,31.4c-1.2,11.2-3.1,21.6-1.5,33
	c2.1,17.2,10.6,33.7,23.8,45.1c12.3,10.7,27.5,12,42.3,6c9.8-4,19.2-9.5,27.6-16.1c3.4-2.6,6.7-5.5,9.2-9
	C1657.8,497.5,1654.1,495.5,1652.6,497.7L1652.6,497.7L1652.6,497.7z"/><path d="M1677.6,453.3c3.8-4.4,11.2-10.3,16.9-4.9c4.3,4.1,4.4,11.8,3.1,17.3c-1.5,6-5.1,11.2-10,15.2c-5.2,4.3-12.1,8.7-19,8.7
	c-2.6,0-2.8,4.1,0,4.1c6.6,0,12.7-3.2,18.1-6.9c5.2-3.5,9.8-8.1,12.6-13.8c2.6-5.2,3.8-11,2.9-16.9c-0.8-5.5-3.5-11.3-9.2-13.2
	c-7.2-2.3-13.8,2.5-18.3,7.5C1673,452.4,1675.9,455.3,1677.6,453.3L1677.6,453.3L1677.6,453.3z"/><path d="M1693.2,455.9c-4.4-2.1-8.7,1.2-11.8,4.1c-2.9,2.8-5.4,6.1-7.2,9.7c-0.5,0.9-0.3,2.3,0.8,2.9c0.9,0.6,2.3,0.3,2.8-0.8
	c1.5-3.1,3.4-5.7,5.8-8.1c1.2-1.2,2.3-2.3,3.7-3.2c1.1-0.8,2.8-1.5,3.8-1.1c1.1,0.5,2.3,0.3,2.8-0.8
	C1694.4,457.9,1694.3,456.6,1693.2,455.9L1693.2,455.9L1693.2,455.9z"/><path d="M1680.2,466.1c0.2,0,0.3,0.2,0.3,0.2c0.2,0-0.2-0.2,0,0c0,0,0.3,0.3,0.2,0.2s0.2,0.2,0.2,0.2c0,0.2,0.2,0.3,0.2,0.3
	c0.2,0.3-0.2-0.5,0,0c0,0.3,0.2,0.6,0.2,0.8c0,0.2,0,0.2,0,0c0,0.2,0,0.3,0,0.5c0,0.3,0,0.6,0,0.9c0,0.2,0,0.3,0,0.5
	c0-0.3,0-0.2,0,0c0,0.3-0.2,0.6-0.2,0.9s-0.2,0.5-0.3,0.8c0.2-0.5,0,0,0,0c0,0.2-0.2,0.3-0.2,0.5c-0.2,0.3-0.3,0.5-0.5,0.8
	c0,0-0.3,0.5-0.2,0.2c0.2-0.3-0.2,0.2-0.2,0.2c-0.2,0.2-0.5,0.5-0.6,0.6c-0.2,0-0.2,0.2-0.3,0.2c0,0-0.5,0.3-0.2,0.2
	c-0.2,0.2-0.5,0.3-0.6,0.5c-0.2,0-0.3,0.2-0.3,0.2c-0.2,0-0.6,0.3-0.2,0.2c-1.1,0.5-1.8,1.4-1.5,2.6c0.3,0.9,1.5,1.8,2.6,1.5
	c3.1-1.4,5.5-3.8,6.4-7.2c0.8-3.1,0.5-7.7-2.9-9c-1.1-0.5-2.3-0.3-2.8,0.8C1679,464.2,1679.1,465.6,1680.2,466.1L1680.2,466.1
	L1680.2,466.1z"/><path d="M1573.7,411.9c0.2,0,0.2-0.2,0.3-0.2c0,0,0.5-0.2,0.2-0.2c-0.3,0.2,0.2,0,0.2,0c0.2,0,0.2,0,0.3-0.2
	c0.5-0.2,0.9-0.3,1.4-0.3c0,0,0.5,0,0.3,0c-0.3,0,0.2,0,0.2,0c0.3,0,0.5,0,0.6,0c0.5,0,1.1,0,1.5,0c0.3,0-0.3,0,0,0
	c0.2,0,0.3,0,0.3,0c0.3,0,0.5,0.2,0.8,0.2c0.2,0,0.5,0.2,0.6,0.2c0.2,0,0.2,0,0.3,0.2c0.5,0.2-0.3-0.2,0,0c0.5,0.2,0.9,0.5,1.2,0.8
	c0.2,0.2,0.3,0.3,0.6,0.3c-0.3-0.3,0,0,0,0c0.2,0.2,0.2,0.2,0.3,0.3c0.8,0.8,2.1,0.9,2.9,0c0.8-0.8,0.9-2.1,0-2.9
	c-3.8-3.5-9.7-4.3-14.3-1.8c-0.9,0.5-1.4,2-0.8,2.9C1571.4,412.2,1572.7,412.5,1573.7,411.9L1573.7,411.9L1573.7,411.9z"/><g><path d="M1577,431.4c0.5,0.5,0.8,1.5,0.9,2.1c0.3,1.7,0.3,3.4,0,5.1c-0.2,0.8-0.3,1.5-0.8,2.1c-0.5,0.6-1.1,1.1-1.8,1.1
		c-1.1,0-2-0.8-2.5-1.8c-0.6-1.2-0.8-2.6-0.5-4s0.6-2.6,1.2-3.8c0.2-0.5,0.5-0.9,0.8-1.1c0.3-0.3,0.8-0.5,1.5-0.3
		C1576.2,430.8,1576.7,431.1,1577,431.4L1577,431.4z"/><path d="M1575.4,432.8c0,0-0.2-0.3-0.2-0.2S1575.4,432.8,1575.4,432.8C1575.6,433.2,1575.3,432.6,1575.4,432.8
		c0.2,0.5,0.3,0.8,0.3,1.1c0,0.2,0,0.3,0.2,0.5c0-0.3,0,0.2,0,0.3c0,0.5,0,0.9,0,1.4s0,0.8,0,1.2c0,0.2,0,0.2,0,0.3c0,0,0-0.3,0,0
		s0,0.5-0.2,0.8c0,0.2-0.2,0.5-0.2,0.6s0,0.2-0.2,0.3c0,0,0.2-0.3,0,0c-0.2,0.2-0.2,0.3-0.3,0.5c-0.2,0.2,0,0,0,0
		c-0.2,0-0.2,0.2-0.3,0.3c0,0,0.3-0.2,0,0c-0.2,0.2,0.2,0,0.2,0c-0.2,0-0.5,0-0.2,0c-0.3,0,0.3,0.2,0,0c0.3,0.2,0,0-0.2-0.2
		c-0.3-0.2,0.2,0.3,0,0l-0.2-0.2c-0.3-0.3,0.2,0.2,0-0.2c0-0.2-0.2-0.3-0.3-0.5c0,0-0.2-0.3,0-0.2c0.2,0.2,0-0.2,0-0.2
		c0-0.2-0.2-0.3-0.2-0.6c0-0.2,0-0.2,0-0.3c0,0,0,0.3,0,0c0-0.5,0-0.8,0-1.2c0-0.2,0-0.2,0-0.3c0-0.3,0,0.3,0,0c0-0.2,0-0.5,0.2-0.6
		c0.2-0.5,0.3-0.8,0.3-1.2c0-0.2,0.2-0.5,0.3-0.6s0,0,0,0c0-0.2,0.2-0.3,0.2-0.3C1575.3,433.2,1575.3,433.1,1575.4,432.8l0.2-0.2
		c-0.2,0.2-0.2,0.2,0,0L1575.4,432.8C1575.3,432.8,1575.3,432.8,1575.4,432.8l0.2-0.2L1575.4,432.8
		C1575.4,432.8,1575.6,432.6,1575.4,432.8C1575.1,432.8,1575.1,432.8,1575.4,432.8C1575.3,432.8,1575.4,432.8,1575.4,432.8
		C1575.6,432.8,1575.4,432.8,1575.4,432.8C1575.1,432.6,1575.1,432.5,1575.4,432.8C1575,432.5,1575.3,432.8,1575.4,432.8
		c0.8,0.8,2.1,0.9,2.9,0s0.8-2.1,0-2.9c-1.1-1.1-2.5-1.5-4-1.2c-1.2,0.3-2.3,1.2-2.8,2.5c-1.2,2.5-1.8,5.1-1.4,7.7
		c0.5,2.5,2.3,5.2,5.1,4.9c1.5-0.2,2.8-0.9,3.5-2.3c0.8-1.2,0.9-2.6,1.1-3.8c0.2-1.5,0.2-2.9-0.2-4.3c-0.2-1.2-0.6-2.5-1.5-3.5
		c-0.8-0.8-2.1-0.8-2.9,0C1574.7,430.8,1574.7,432,1575.4,432.8L1575.4,432.8z"/></g><g><path d="M1626.3,433.7c0.5,0.5,0.8,1.5,0.9,2.1c0.3,1.7,0.3,3.4,0,5.1c-0.2,0.8-0.3,1.5-0.8,2.1c-0.5,0.6-1.1,1.1-1.8,1.1
		c-1.1,0-2-0.8-2.5-1.8c-0.6-1.2-0.8-2.6-0.5-4s0.6-2.6,1.2-3.8c0.2-0.5,0.5-0.9,0.8-1.1c0.3-0.3,0.8-0.5,1.5-0.3
		C1625.7,433.1,1626.2,433.5,1626.3,433.7L1626.3,433.7z"/><path d="M1625,435.2c0,0-0.2-0.3-0.2-0.2L1625,435.2C1625.1,435.5,1624.8,434.9,1625,435.2c0.2,0.5,0.3,0.8,0.3,1.1
		c0,0.2,0,0.3,0.2,0.5c0-0.3,0,0.2,0,0.3c0,0.5,0,0.9,0,1.4s0,0.8,0,1.2c0,0.2,0,0.2,0,0.3c0,0,0-0.3,0,0s0,0.5-0.2,0.8
		c0,0.2-0.2,0.5-0.2,0.6s0,0.2-0.2,0.3c0,0,0.2-0.3,0,0c-0.2,0.2-0.2,0.3-0.3,0.5c-0.2,0.2,0,0,0,0c-0.2,0-0.2,0.2-0.3,0.3
		c0,0,0.3-0.2,0,0c-0.2,0.2,0.2,0,0.2,0c-0.2,0-0.5,0-0.2,0c-0.3,0,0.3,0.2,0,0c0.3,0.2,0,0-0.2-0.2c-0.3-0.2,0.2,0.3,0,0l-0.2-0.2
		c-0.3-0.3,0.2,0.2,0-0.2c0-0.2-0.2-0.3-0.3-0.5c0,0-0.2-0.3,0-0.2s0-0.2,0-0.2c0-0.2-0.2-0.3-0.2-0.6c0-0.2,0-0.2,0-0.3
		c0,0,0,0.3,0,0c0-0.5,0-0.8,0-1.2c0-0.2,0-0.2,0-0.3c0-0.3,0,0.3,0,0c0-0.2,0-0.5,0.2-0.6c0.2-0.5,0.3-0.8,0.3-1.2
		c0-0.2,0.2-0.5,0.3-0.6s0,0,0,0c0-0.2,0.2-0.3,0.2-0.3C1624.7,435.7,1624.8,435.5,1625,435.2l0.2-0.2c-0.2,0.2-0.2,0.2,0,0
		L1625,435.2C1624.8,435.2,1624.8,435.2,1625,435.2l0.2-0.2L1625,435.2C1625,435.2,1625,435.1,1625,435.2
		C1624.7,435.2,1624.7,435.2,1625,435.2C1624.8,435.2,1625,435.2,1625,435.2C1625.1,435.1,1625,435.2,1625,435.2
		C1624.7,435.1,1624.7,434.9,1625,435.2C1624.5,434.8,1624.8,435.2,1625,435.2c0.8,0.8,2.1,0.9,2.9,0c0.8-0.9,0.8-2.1,0-2.9
		c-1.1-1.1-2.5-1.5-4-1.2c-1.2,0.3-2.3,1.2-2.8,2.5c-1.2,2.5-1.8,5.1-1.4,7.7c0.5,2.5,2.3,5.2,5.1,4.9c1.5-0.2,2.8-0.9,3.5-2.3
		c0.8-1.2,0.9-2.6,1.1-3.8c0.2-1.5,0.2-2.9-0.2-4.3c-0.2-1.2-0.6-2.5-1.5-3.5c-0.8-0.8-2.1-0.8-2.9,0
		C1624.2,433.1,1624.2,434.3,1625,435.2L1625,435.2z"/></g><path d="M1634.9,416.2c-4.9-3.5-11.7-4.4-17.5-2.6c-1.1,0.3-1.8,1.4-1.5,2.6c0.3,1.1,1.5,1.8,2.6,1.5c4.9-1.5,10-0.8,14.3,2.1
	c0.9,0.6,2.3,0.2,2.8-0.8C1636.3,418.1,1635.9,417,1634.9,416.2L1634.9,416.2L1634.9,416.2z"/><path d="M1589.8,439.4c-0.6,2.8-1.5,5.4-2.8,7.7c-1.2,2.3-3.1,4.6-4.8,6.9c-1.8,2.3-1.7,4.9,0,7.2c1.8,2.6,4,5.2,5.8,7.8
	c0.8,0.9,1.8,1.4,2.8,0.8c0.9-0.5,1.4-2,0.8-2.9c-1.8-2.3-3.5-4.6-5.4-6.9c-0.5-0.8-1.5-1.7-1.4-2.6s1.5-2,2.1-2.8
	c3.2-4.1,5.4-8.9,6.6-14C1594.3,437.8,1590.3,436.8,1589.8,439.4L1589.8,439.4L1589.8,439.4z"/><path d="M1586,487.2c8.9,2.6,18.4,1.5,26.5-2.6c2.3-1.2,0.3-4.8-2.1-3.5c-7.2,3.7-15.6,4.4-23.3,2.3
	C1584.6,482.5,1583.4,486.5,1586,487.2L1586,487.2L1586,487.2z"/><path d="M1635.7,385.5c8,2.1,10.6,9,12,16.6s3.2,14.4,5.7,21.5c2.3,6.6,4.9,13,8,19.3c2.5,4.9,5.1,10.1,10.7,11.8
	c2.6,0.8,3.7-3.2,1.1-4c-6.1-1.7-8.9-11-11.2-16.3c-3.1-7.1-5.5-14.4-7.5-21.8c-3.2-12-3.4-27.3-17.6-31.1
	C1634.2,380.8,1633.1,384.8,1635.7,385.5L1635.7,385.5L1635.7,385.5z"/><path d="M1559,411.6c-3.5-2.6-6.4-6.6-8.9-10.3c-2.8-4-4.1-8.4-5.1-13.2c-2.1-11.2-1.2-23.8,4.4-33.9c1.2-2.3-2.3-4.4-3.5-2.1
	c-6.1,11-7.4,24.7-4.9,37c2,10,7.5,19.9,15.8,25.9C1559,416.8,1561.2,413.1,1559,411.6L1559,411.6L1559,411.6z"/><path d="M1547.2,355.3c3.1,1.1,6.6,2.1,9.8,2.1c6.3,0.2,12.6,0,18.9,0c2.6,0,2.8-4.1,0-4.1c-6.1,0-12.3,0-18.4,0
	c-2.8,0-6.3-0.9-9.2-2C1545.8,350.4,1544.7,354.4,1547.2,355.3L1547.2,355.3L1547.2,355.3z"/><path d="M1562.2,356.9c8.4-5.4,14.6-13.8,23.3-18.7c4.4-2.6,9.7-4.1,14.6-5.4c15-3.8,31.6-4.1,46.2,1.7c10.1,4,18.4,11,24.4,20.1
	c1.5,2.1,5.1,0.2,3.5-2.1c-10.7-16-27.5-24.8-46.3-26.2c-14.1-1.1-29.4,1.2-42.2,7.4c-9.8,4.8-16.6,14.1-25.6,19.9
	C1557.9,354.7,1560.1,358.4,1562.2,356.9L1562.2,356.9L1562.2,356.9z"/><path d="M1672.5,355.5c8.7-0.2,15.8,6.3,21.2,12.6c5.8,6.9,10,15.2,11.7,24.1c3.4,18.1-2.6,34.8-9.8,51.1c-1.1,2.5,2.5,4.6,3.5,2.1
	c8-17.9,14.4-36.5,9.8-56.3c-2.1-9.4-6.9-17.9-13.3-25c-6.1-6.7-13.7-12.9-23-12.7C1669.9,351.3,1669.9,355.5,1672.5,355.5
	L1672.5,355.5L1672.5,355.5z"/><path d="M1548.3,374.5c6.6,10.4,18.7,16.6,31,16.7c2.6,0,2.8-4.1,0-4.1c-10.7-0.2-21.5-5.5-27.3-14.7
	C1550.4,370,1546.9,372.2,1548.3,374.5L1548.3,374.5L1548.3,374.5z"/><path d="M1566.7,380c17.3,12.1,39.6,8.1,58.9,4.1c2.6-0.5,1.5-4.6-1.1-4c-18.3,3.7-39.3,7.7-55.7-3.8
	C1566.5,375,1564.5,378.6,1566.7,380L1566.7,380z"/><path d="M1905.3,1089.2c13.5,12.4,17.2,31,16.6,48.5c-0.2,4.8-0.5,9.5-1.2,14.1c-0.3,1.8-0.6,3.7-1.5,5.5c-1.1,2.3-2.9,3.8-4.4,5.7
	c-4.8,5.7-2.1,13,1.8,18.4c4.4,6.1,10.6,10.7,15.8,16.4c4.8,5.4,7.1,11.3,8.4,18.3c2.3,12,1.7,25.9,8.7,36.3
	c3.1,4.6,7.8,8.7,12.6,11.3c6.7,3.7,14.3,4.3,21.8,3.2c2.6-0.3,1.5-4.3-1.1-4c-12.3,1.7-25-3.5-31-14.7c-6-11-4.9-24.8-7.8-36.8
	c-1.4-5.8-3.7-10.9-7.7-15.3c-5.1-6-11.5-10.6-16.3-16.9c-2.3-3.1-4.8-7.2-3.7-11c1.1-3.7,5.1-6,6.6-9.5c2.9-7.1,2.9-16.1,2.9-23.6
	c0.2-17.8-4.3-36.3-17.8-48.8C1906.3,1084.5,1903.3,1087.4,1905.3,1089.2L1905.3,1089.2L1905.3,1089.2z"/><path d="M1947.2,1079.6c11.3,10.7,19.5,24.4,23.3,39.6c1.7,6.4,2.8,12.9,4,19.3c2.3,11,4.8,22.1,7.4,33c2.6,10.9,6.1,21.5,8.7,32.2
	c4.1,16.6,5.5,34.5-4,49.5c-1.4,2.3,2.1,4.3,3.5,2.1c16-25,3.5-53.7-3.1-79.4c-4.4-17.9-8.3-36-12-54.1
	c-3.5-17.2-12.6-33.1-25.3-45.1C1948.1,1074.8,1945.2,1077.7,1947.2,1079.6L1947.2,1079.6L1947.2,1079.6z"/><path d="M1330.6,1222.7c9.5-1.4,18.7-6.4,27.1-10.7c9-4.8,18.1-10,26.4-15.8c4.4-3.2,8-7.1,11.7-11.2s7.5-7.4,13.3-6.4
	c7.1,1.1,13.3,5.4,19.3,9s12.3,6.6,19.2,8c12.7,2.3,27.3,0.5,38.2-6.9c3.7-2.5,7.7-6.9,12.1-7.7c3.8-0.8,7.7,2.9,9.4,6
	c1.1,2.1,1.7,4.9,2.3,7.4c1.1,4.3,2,8.6,2.9,12.9c2,9.5,4,19.2,5.7,28.7c1.4,7.2,3.4,15,2.1,22.2c-2.1,12.7-15,14-25.6,15.3
	c-9.8,1.4-19.6,1.7-29.4,2c-12.6,0.5-25,1.5-37.4,2.9c-15.5,1.8-31.3,2.5-46.9,3.1c-23.3,0.9-46.9,1.4-70.1-1.5
	c-12.1-1.5-24.1-9.7-25.5-22.7c-1.8-16.3,14.1-26.4,27.6-30.7C1318.8,1224.5,1324.7,1223.4,1330.6,1222.7c2.6-0.3,1.5-4.3-1.1-4
	c-17.6,2.3-40.3,8.9-46.9,27.6c-4.3,12.3,1.8,25.5,12.4,32.4c7.2,4.6,15.3,5.4,23.6,6.1c12.4,1.1,24.8,1.4,37.3,1.2
	c21.6,0,43.1-1.1,64.7-2.9c9.5-0.8,19-2.1,28.5-2.9c10.6-0.8,21.3-0.8,31.9-1.4c5.4-0.3,10.6-0.9,15.8-1.7c6-0.9,12.7-1.5,18.1-4.4
	c8.9-4.9,10.7-14.9,9.7-24.2c-0.9-8.1-2.8-16.3-4.3-24.4c-2-9.8-3.8-19.8-6.3-29.4c-1.7-7.1-3.7-14.3-11-17.5
	c-3.5-1.5-7.1-0.8-10.4,1.2c-4.9,2.9-9,6.9-14.3,9.5c-14.7,7.2-32.7,4.8-46.3-3.2c-9.5-5.5-23-15.6-33.9-7.8
	c-4.4,3.2-7.5,8.1-11.7,12c-3.5,3.4-7.8,6-12,8.6c-10.3,6.4-21,12.6-32.2,17.2c-4.1,1.7-8.3,3.4-12.7,4
	C1327,1219,1328,1223,1330.6,1222.7L1330.6,1222.7z"/><path d="M1294.4,1259.6c16,6.6,32.2,9.5,49.4,10.1c16.3,0.5,32.5-0.3,48.8-1.5c25.5-1.8,50.9-5.1,76.2-8.4c7.4-1.1,14.9-0.3,22.4,0
	c8.6,0.2,18.4,0.5,26.1-4c2.3-1.4,0.3-4.9-2.1-3.5c-6.9,3.8-15.8,3.5-23.5,3.4c-7.5-0.2-15-0.9-22.5,0c-8.4,1.1-16.7,2.3-25.2,3.4
	c-31.1,3.8-62.6,7.2-93.9,6.7c-8.7-0.2-17.5-0.5-26.1-1.8c-10-1.5-19.2-4.4-28.5-8.3C1293.2,1254.6,1292.1,1258.7,1294.4,1259.6
	L1294.4,1259.6L1294.4,1259.6z"/><path d="M1398.6,1152.3c3.7,6.9,6.7,14.1,9,21.5c0.8,2.6,4.8,1.5,4-1.1c-2.3-7.8-5.5-15.3-9.4-22.5
	C1400.9,1147.8,1397.4,1150,1398.6,1152.3L1398.6,1152.3L1398.6,1152.3z"/><path d="M1492.3,897c29,18.9,60.7,34.5,93.9,44.8c29.8,9.2,61.8,13.8,92.9,14c16.7,0,33.9-1.2,50-6.3c2.6-0.8,1.5-4.8-1.1-4
	c-29.3,9-61.8,7.1-91.7,2.9c-31.9-4.4-62.3-13.5-91.4-27.1c-17.3-8.1-34.2-17.3-50.3-27.9C1492.1,892,1490,895.7,1492.3,897
	L1492.3,897L1492.3,897z"/><path d="M1716.7,629.3c7.4-17.3,20.7-31.4,37.7-39.6c2.5-1.2,0.3-4.8-2.1-3.5c-17.5,8.4-31.7,23.2-39.3,41.1
	C1712.1,629.6,1715.6,631.7,1716.7,629.3L1716.7,629.3z"/><path d="M1140.3,381.1c-21.8,57.1-32.7,118.3-31.4,179.4c1.1,55.2,9.4,116.3,46.9,159.5c33,37.9,83.9,58.7,133.9,54
	c30.2-2.8,59-12.9,88-21.3c21-6.1,41.6-9.8,63.5-10.6c22.4-0.9,45.2,0.2,67.2,4.8c19.9,4.1,38.2,10.9,51.7,26.8
	c9,10.7,15.2,23.6,19.6,36.8c3.5,10.6,7.8,23.3,7.2,34.7c-0.9,19.5-15.2,38.5-25.5,54.1c-10.7,16.3-23.6,32.4-30.8,50.8
	c-7.8,20.4-11.8,42.8-15,64.3c-3.4,23.6-5.4,47.5-4.8,71.3c0.6,21.5,4.3,40.8,11.8,60.7c6.1,16.4,10.9,32.4,13,49.8
	c1.8,15,6.1,31.9,2.8,46.9c-5.1,22.2-28.4,30.2-48.3,34.2c-40,8-82.5,5.4-123,3.5c-22.4-1.1-44.8-3.4-67.2-3.4
	c-38.7,0.2-77.5,0.2-116.1,0.3c-63.2,0.2-126.5,0.3-189.7,0.5c-61.7,0.2-123.3,0.3-184.8,0.5c-35.3,0.2-70.7,0.2-106,0.3
	c-1.7,0-3.2,0-4.9,0c-5.4,0-5.4,8.3,0,8.3c25.3,0,50.8-0.2,76.1-0.2c58.1-0.2,116.3-0.3,174.4-0.5c65.6-0.2,131.3-0.3,196.9-0.5
	l139.4-0.3c54.3-0.2,108.4,6.4,162.9,4.1c26.8-1.2,59.7-2.8,82.1-19.6c22.1-16.6,18.1-41.7,15.2-66c-2-16.7-4.4-32.7-10-48.8
	c-3.5-10.3-8.1-20.4-10.9-31c-2.6-9.8-3.7-19.9-4.3-30.1c-1.5-24.2,0-48.8,3.2-72.9c3.1-22.7,7.2-45.9,14.9-67.5
	c6.6-18.6,20.1-34.8,30.8-51.1c10.7-16.3,23.6-34.5,26.2-54.4c1.4-10.1-1.5-20.7-4.1-30.4c-3.2-12.3-7.7-24.2-13.8-35.3
	c-10.6-18.6-25.5-31.9-45.4-39c-19.9-7.2-41.7-9.7-62.7-10.6c-20.4-0.9-41.1-0.2-61.4,3.1c-27.6,4.4-54.1,15-81.3,21.9
	c-28.1,7.2-56.9,10.3-85.3,3.2c-25.5-6.3-49.1-19-68.3-37c-20.9-19.5-34.7-44.5-42.6-71.6c-8.6-28.8-11.8-59.4-12.6-89.4
	c-0.9-31.4,1.4-63,6.7-94c5.2-29.8,13.3-58.9,24.2-87C1150.3,378.3,1142.3,376,1140.3,381.1L1140.3,381.1L1140.3,381.1z"/><g><ellipse cx="1166.4" cy="315.1" fill="#9cdce6" rx="17.6" ry="42.2" transform="rotate(-73.261 1166.39 315.072)"/><path fill="#9cdce6" d="M1126,302.9c0,0-11.2,30.4-1.8,62c0,0,6,9.4,17.3,14.9s25.6,4.8,30.7,2.8c24.8-10.1,34.5-55.2,34.5-55.2
		L1126,302.9z"/><path d="M1185.9,337.8c-7.7,0-16.3-1.4-25-4c-23.8-7.2-39.9-21-36.7-31.6s24.2-13.2,48-6.1c11,3.4,20.9,8.3,27.8,14
		c7.4,6,10.6,12.3,8.9,17.6l0,0c-1.5,5.4-7.7,8.9-17.2,9.8C1189.7,337.7,1187.8,337.8,1185.9,337.8L1185.9,337.8z M1146.9,296.3
		c-10.6,0-17.6,2.9-18.9,7.2c-2.1,7.2,10.9,19.5,33.9,26.4c10.6,3.2,20.9,4.4,29.1,3.5c7.5-0.8,12.6-3.4,13.7-6.9l0,0
		c1.1-3.7-1.7-8.4-7.5-13.3c-6.4-5.4-15.8-10-26.4-13.2C1161.9,297.5,1153.6,296.3,1146.9,296.3L1146.9,296.3z"/><path d="M1161.6,385.8c-6.6,0-14.3-1.2-21-4.4c-11.2-5.4-16.1-9.7-18.4-16c-7.7-21.8,1.4-61.4,1.7-63l4,0.9
		c-0.2,0.5-9.2,40.2-1.8,60.7c1.5,4.4,4.8,8.1,16.3,13.7c10.9,5.2,24.5,4.4,29.1,2.6c23.5-9.7,33.1-53.2,33.3-53.7l4.1,0.9
		c-0.5,1.8-10.1,46.2-35.7,56.6C1170.5,385.2,1166.4,385.8,1161.6,385.8L1161.6,385.8z"/><path fill="#fff" d="M1162.7,270.8l5.5,1.7c0.5,0.2,0.8,0.6,0.6,1.2l-11.3,37.7l-7.4-2.3l11.3-37.7
			C1161.6,271,1162.2,270.7,1162.7,270.8L1162.7,270.8z"/><path d="M1159,313.9l-11.3-3.4l11.2-37.3c0.5-1.4,1.4-2.6,2.6-3.2c1.2-0.6,2.8-0.9,4.1-0.5l0.8,0.3c2.9,0.9,4.6,4,3.7,6.9
			L1159,313.9z M1152.9,307.8l3.4,1.1l10-33.3c0.2-0.8-0.2-1.5-0.9-1.7l-0.8-0.3c-0.3-0.2-0.8-0.2-1.1,0.2c-0.3,0.2-0.6,0.5-0.6,0.8
			L1152.9,307.8L1152.9,307.8z"/><g><path fill="#fff" d="M1188.8,278.6l5.5,1.7c0.5,0.2,0.8,0.6,0.6,1.2l-11.3,37.7l-7.4-2.3l11.3-37.7
			C1187.7,278.8,1188.3,278.5,1188.8,278.6L1188.8,278.6z"/><path d="M1185.1,321.7l-11.3-3.4l11.2-37.3c0.9-2.9,4-4.6,6.9-3.7l0.8,0.3c2.9,0.9,4.6,4,3.7,6.9L1185.1,321.7L1185.1,321.7z
			 M1178.8,315.6l3.4,1.1l10-33.3c0.2-0.8-0.2-1.5-0.9-1.7l-0.8-0.3c-0.8-0.2-1.5,0.2-1.7,0.9L1178.8,315.6L1178.8,315.6z"/></g></g><g><path fill="#fff" d="M1167.8,341.1c0,0-27.1,6.6-24.8,8.3c2.3,1.8,14.4,5.8,14.4,5.8s-12.7,11.5-12.3,11.7
		c1.8,0.8,33.9-10.6,28.4-13.8c-1.4-0.8-16.1-3.8-14.9-4.8C1160.5,346.9,1171.7,341.2,1167.8,341.1L1167.8,341.1z"/><path fill="#fff" d="M1145.2,368.4c-0.3,0-0.6,0-0.8-0.2l-0.8-0.3l-0.2-0.8c-0.2-0.9-0.2-1.4,10.9-11.3c-3.7-1.4-10.7-3.8-12.6-5.4
		l-0.8-0.6v-1.2c0.2-0.9,0.6-2.9,25.9-9h0.2h0.2c1.5,0.2,2,0.9,2.1,1.4c0.5,1.7-1.2,2.9-7.8,6.7c-0.3,0.2-0.5,0.3-0.8,0.5
		c1.8,0.6,4.8,1.4,6.6,1.8c3.8,1.1,5.5,1.4,6.1,1.8c1.2,0.8,1.7,2,1.1,3.2C1173,359.3,1150.3,368.2,1145.2,368.4L1145.2,368.4z
		 M1145.1,349c2.9,1.4,8.9,3.5,12.6,4.9l2.3,0.8l-1.8,1.5c-3.4,3.1-7.1,6.4-9.4,8.7c6.9-2,21.8-8,23.8-10.7
		c-0.9-0.3-3.4-0.9-5.2-1.5c-8.7-2.3-10-2.8-10.1-4l-0.2-0.9l0.8-0.6c0.5-0.3,1.7-1.1,3.1-1.8c0.9-0.5,2.1-1.2,3.4-2
		C1156.1,345.4,1148.1,347.7,1145.1,349L1145.1,349z M1167.8,342.4L1167.8,342.4L1167.8,342.4
		C1167.9,342.4,1167.9,342.4,1167.8,342.4z"/></g><g><path fill="#fff" d="M613,1207.6c0,43.4,35.3,78.7,78.7,78.7c43.4,0,78.7-35.3,78.7-78.7H613L613,1207.6z"/><path d="M691.5,1288.3c-44.5,0-80.7-36.2-80.7-80.7v-2.1h161.5v2.1C772.4,1252.1,736.2,1288.3,691.5,1288.3z M615,1209.6
		c1.1,41.3,35,74.5,76.5,74.5s75.5-33.3,76.5-74.5H615z"/></g><g><path fill="#fff" d="M594.9,1119.3h193.4c6.4,0,11.7,5.2,11.7,11.7l0,0c0,6.4-5.2,11.7-11.7,11.7H594.9c-6.4,0-11.7-5.2-11.7-11.7
		l0,0C583.2,1124.5,588.5,1119.3,594.9,1119.3z"/><path d="M788.3,1144.7H594.9c-7.5,0-13.8-6.1-13.8-13.8c0-7.7,6.1-13.8,13.8-13.8h193.4c7.7,0,13.8,6.1,13.8,13.8
		C802.1,1138.6,796,1144.7,788.3,1144.7z M594.9,1121.3c-5.4,0-9.7,4.3-9.7,9.7c0,5.4,4.3,9.7,9.7,9.7h193.4c5.4,0,9.7-4.3,9.7-9.7
		c0-5.4-4.3-9.7-9.7-9.7H594.9z"/></g><g><path fill="#fff" d="M601.5,1142.6h180.2v52c0,8.6-7.1,15.6-15.6,15.6H617.3c-8.6,0-15.6-7.1-15.6-15.6L601.5,1142.6L601.5,1142.6
		L601.5,1142.6z"/><path d="M770.2,1212.4H613c-7.5,0-13.7-6.1-13.7-13.7v-58.3h184.2v58.3C783.7,1206.3,777.7,1212.4,770.2,1212.4L770.2,1212.4z
		 M603.6,1144.7v54.1c0,5.2,4.3,9.4,9.4,9.4h157.1c5.2,0,9.4-4.3,9.4-9.4v-54.1H603.6L603.6,1144.7z"/></g><g><path d="M778.2,1184.3c-58,0-116,0-173.9,0c-2.6,0-2.8,4.1,0,4.1c58,0,116,0,173.9,0C780.8,1188.5,780.8,1184.3,778.2,1184.3z"/><path d="M604.3,1166.1c58,0,116,0,173.9,0c2.6,0,2.8-4.1,0-4.1c-58,0-116,0-173.9,0C601.6,1161.9,601.6,1166.1,604.3,1166.1z"/></g><path d="M788.3,1144.7H594.9c-7.5,0-13.8-6.1-13.8-13.8c0-7.7,6.1-13.8,13.8-13.8h193.4c7.7,0,13.8,6.1,13.8,13.8
	C802.1,1138.6,796,1144.7,788.3,1144.7z M594.9,1121.3c-5.4,0-9.7,4.3-9.7,9.7c0,5.4,4.3,9.7,9.7,9.7h193.4c5.4,0,9.7-4.3,9.7-9.7
	c0-5.4-4.3-9.7-9.7-9.7H594.9z"/><path d="M770.2,1212.4H613c-7.5,0-13.7-6.1-13.7-13.7v-58.3h184.2v58.3C783.7,1206.3,777.7,1212.4,770.2,1212.4L770.2,1212.4z
	 M603.6,1144.7v54.1c0,5.2,4.3,9.4,9.4,9.4h157.1c5.2,0,9.4-4.3,9.4-9.4v-54.1H603.6L603.6,1144.7z"/><path d="M601.5,1147.5c0,0,160.3-2,175-4.9h-175V1147.5L601.5,1147.5z"/><path fill="#fff" d="M842.1,446.6c-0.3-2.6-0.8-5.1-2.3-7.2c-1.4-2-3.1-4-5.4-5.1c-1.7-0.8-3.4-1.4-5.2-1.5
	c-4.1-1.7-8.9-1.5-12.9,0.8c-2.1,1.2-3.8,3.1-5.1,5.1c-0.6,1.1-1.1,2.1-1.5,3.4c-0.2,0.6-0.3,1.2-0.5,1.7c-0.5,2.6-0.5,4.8,0.2,7.4
	c0.6,2.6,1.8,4.4,3.5,6.4c0.6,0.8,1.2,1.2,2,1.8c0.8,0.6,1.5,1.2,2.3,1.5c2.5,1.2,4.6,1.7,7.4,2c1.8,0.2,3.8-0.2,5.5-0.6
	c2.6-0.8,4.6-2,6.6-3.7c0.8-0.6,1.4-1.4,1.8-2.1s1.2-1.5,1.7-2.5C841.5,451.8,842.3,449.2,842.1,446.6z"/><path fill="#fff" d="M867.8,506.1c42.2,36.3,72.9,84,87.7,137.7c5.8,20.6,37.9,11.8,32.1-8.9c-16.4-58.7-50.2-112.4-96.3-152.3
	c-6.7-5.8-16.9-6.7-23.5,0C861.8,488.6,861,500.1,867.8,506.1L867.8,506.1L867.8,506.1z"/><g opacity=".24"><path fill="#fff" d="M510.7,893.5C497,957.2,415.1,813,392.3,752c0,0-6.9-27.8,23-34c29.9-6.3,32.7,51.8,50.8,78.5
		C485.1,824.5,515.3,871.7,510.7,893.5z"/><path fill="#fff" d="M569.6,939.8c-4.1-6.1-10.3-10.7-17-13.3l0.6,0.2c-6.7-3.4-14.9-6.7-21.5-3.1c-4,2.1-6.6,6.6-7.2,11
		c-0.6,4.6,0.3,9.2,2,13.5c5.2,13.7,17.2,24.5,31.3,28.5c3.7,1.1,7.8,1.5,11.2-0.3c3.2-1.8,4.9-5.7,5.8-9.4
		C577,957.6,575,947.7,569.6,939.8L569.6,939.8z"/></g></svg>