<svg xmlns="http://www.w3.org/2000/svg" viewBox="0 0 80 80"><path fill="#FFD05B" d="M70.82 47.68c0 7.59-2.745 14.534-7.301 19.908a30.596 30.596 0 0 1-2.735 2.85v.01c-.01.01-.03.02-.039.03C55.255 75.465 47.984 78.5 40 78.5a30.662 30.662 0 0 1-17.731-5.605c-.8-.568-1.58-1.165-2.321-1.811a8.825 8.825 0 0 1-.559-.491C13.12 64.949 9.181 56.773 9.181 47.68a30.634 30.634 0 0 1 5.364-17.375 30.7 30.7 0 0 1 3.64-4.401l.01-.01a31.114 31.114 0 0 1 5.74-4.527c.906-.558 1.85-1.059 2.812-1.521a30.958 30.958 0 0 1 2.861-1.195c.154-.048.298-.105.443-.154a30.1 30.1 0 0 1 6.462-1.435 30.004 30.004 0 0 1 5.654-.125 30.561 30.561 0 0 1 13.368 4.122 29.477 29.477 0 0 1 2.783 1.83 31.164 31.164 0 0 1 7.416 7.83s.01 0 .01.01c.472.712.915 1.454 1.329 2.215a30.693 30.693 0 0 1 3.746 14.736z"/><path fill="#08A554" d="M14.98 25.452a1.513 1.513 0 0 0-1.54 1.917c1.056 3.788 6.418 14.021 9.09 16.168a8.213 8.213 0 0 0 10.288-12.803c-2.672-2.148-13.91-5.067-17.837-5.282z"/><path fill="#018E49" d="M30.017 44.999a8.198 8.198 0 0 1-7.485-1.464c-2.676-2.147-8.038-12.38-9.094-16.17a1.507 1.507 0 0 1 1.548-1.908c.864.048 2.075.228 3.467.491-.324.36-.468.888-.324 1.416 1.056 3.79 6.418 14.024 9.093 16.171A8.024 8.024 0 0 0 30.017 45z"/><path fill="#08A554" d="M40.898 47.554a1.199 1.199 0 0 1-1.68.3c-.036-.024-.071-.06-.108-.084l-6.142-5.483-8.997-8.013 9.885 6.898 6.742 4.714c.54.372.684 1.128.3 1.668z"/><path fill="#11BD64" d="M33.856 41.172a1.222 1.222 0 0 1-.192.6c-.168.264-.42.444-.696.516l-8.997-8.014 9.885 6.898z"/><path fill="#08A554" d="M65.624 30.724a1.513 1.513 0 0 1 1.542 1.918c-1.056 3.788-6.419 14.021-9.09 16.168a8.213 8.213 0 0 1-10.289-12.804c2.672-2.147 13.911-5.066 17.837-5.282z"/><path fill="#018E49" d="M50.588 50.271a8.198 8.198 0 0 0 7.486-1.463c2.675-2.148 8.037-12.38 9.093-16.171a1.507 1.507 0 0 0-1.548-1.908c-.863.048-2.075.228-3.467.492.324.36.468.888.324 1.416-1.055 3.79-6.418 14.023-9.093 16.17a8.023 8.023 0 0 1-2.795 1.464z"/><path fill="#08A554" d="M39.707 52.827a1.199 1.199 0 0 0 1.68.3c.036-.025.072-.06.108-.085l6.142-5.482 8.997-8.014-9.885 6.898-6.742 4.715a1.196 1.196 0 0 0-.3 1.668z"/><path fill="#11BD64" d="M46.75 46.444c.011.216.071.408.191.6.168.264.42.444.696.516l8.997-8.013-9.885 6.898z"/><path fill="#08A554" d="M19.966 9.421a1.215 1.215 0 0 0-1.237 1.54c.848 3.042 5.154 11.26 7.3 12.985a6.596 6.596 0 0 0 8.263-10.283C32.146 11.94 23.12 9.594 19.966 9.421z"/><path fill="#018E49" d="M32.042 25.12a6.584 6.584 0 0 1-6.012-1.176c-2.148-1.725-6.455-9.943-7.303-12.987a1.21 1.21 0 0 1 1.243-1.532c.694.039 1.667.183 2.785.395-.26.29-.376.713-.26 1.137.847 3.044 5.154 11.262 7.302 12.987.684.55 1.446.944 2.245 1.175z"/><path fill="#08A554" d="M40.78 27.172a.963.963 0 0 1-1.348.24c-.029-.019-.058-.048-.087-.067l-4.933-4.403-7.225-6.436 7.938 5.54 5.415 3.787a.96.96 0 0 1 .24 1.339z"/><path fill="#11BD64" d="M35.125 22.046a.98.98 0 0 1-.713.896l-7.225-6.436 7.938 5.54z"/><path fill="#08A554" d="M60.639 13.656a1.215 1.215 0 0 1 1.237 1.54c-.847 3.042-5.154 11.26-7.3 12.985a6.596 6.596 0 0 1-8.263-10.283c2.146-1.725 11.173-4.07 14.326-4.242z"/><path fill="#018E49" d="M48.563 29.354a6.584 6.584 0 0 0 6.012-1.175c2.148-1.725 6.455-9.943 7.303-12.987a1.21 1.21 0 0 0-1.243-1.532c-.694.038-1.667.183-2.784.395.26.289.375.712.26 1.136-.848 3.045-5.155 11.263-7.303 12.988a6.448 6.448 0 0 1-2.245 1.175z"/><path fill="#08A554" d="M39.825 31.406a.963.963 0 0 0 1.348.241c.03-.02.058-.048.087-.067l4.933-4.403 7.226-6.436-7.939 5.54-5.415 3.786a.96.96 0 0 0-.24 1.34z"/><path fill="#11BD64" d="M45.48 26.28a.98.98 0 0 0 .713.897l7.226-6.436-7.939 5.54z"/><path fill="#08A554" d="M55.867 1.502a.934.934 0 0 1 .95 1.183c-.65 2.338-3.96 8.653-5.61 9.979a5.069 5.069 0 0 1-6.35-7.903c1.65-1.325 8.587-3.127 11.01-3.26z"/><path fill="#018E49" d="M46.587 13.565a5.06 5.06 0 0 0 4.62-.903c1.65-1.325 4.96-7.64 5.612-9.98a.93.93 0 0 0-.955-1.177c-.533.03-1.281.14-2.14.303.2.222.289.548.2.874-.652 2.34-3.961 8.655-5.612 9.98a4.953 4.953 0 0 1-1.725.903z"/><path fill="#08A554" d="M39.871 15.142a.74.74 0 0 0 1.037.186c.022-.015.044-.038.067-.052l3.79-3.384 5.553-4.946-6.1 4.258-4.162 2.91a.738.738 0 0 0-.185 1.028z"/><path fill="#11BD64" d="M44.217 11.204a.754.754 0 0 0 .548.688l5.553-4.946-6.1 4.258zM40.456 67.517H39.42a2.18 2.18 0 0 1-2.18-2.2l.518-53.246a2.18 2.18 0 0 1 4.36 0l.518 53.246a2.18 2.18 0 0 1-2.18 2.2z"/><path fill="#08A554" d="M42.638 65.32a2.179 2.179 0 0 1-2.184 2.196h-1.031a2.178 2.178 0 0 1-2.184-2.195l.228-24.077a2.188 2.188 0 0 0 1.956 1.211h1.031c.852 0 1.596-.491 1.955-1.211l.229 24.077z"/><path fill="#915946" d="M70.068 78.5H40a30.662 30.662 0 0 1-17.731-5.605c-.8-.568-1.58-1.165-2.321-1.811a8.825 8.825 0 0 1-.559-.491 6.29 6.29 0 0 1 4.816-2.389c.038-.01.067-.01.106-.01h.057c.992 0 1.936.241 2.774.627 0-.02-.01-.039-.01-.058 0-1.387.318-2.697.877-3.881 0-.01.01-.02.01-.03a12.732 12.732 0 0 1 9.303-8.137 12.33 12.33 0 0 1 2.678-.29c.876 0 1.733.088 2.552.26 4.68.954 8.427 4.48 9.708 9.035a6.333 6.333 0 0 1 2.34-.405c3.044.049 5.587 2.235 6.184 5.124v.01c.077.414.125.838.125 1.28 0 .357-.048.694-.087 1.05a6.046 6.046 0 0 1 2.841-.693 6.404 6.404 0 0 1 6.405 6.414z"/><path fill="#A57763" d="M33.857 74.09c0 1.059-.857 1.916-1.916 1.916a1.924 1.924 0 0 1-1.927-1.917c0-1.059.867-1.926 1.927-1.926s1.916.867 1.916 1.926zm14.707-4.99c0 .501-.405.916-.905.916a.913.913 0 0 1-.906-.916.904.904 0 1 1 1.81 0zm-11.326-1.935c0 .876-.713 1.589-1.58 1.589a1.59 1.59 0 0 1-1.589-1.59c0-.866.713-1.579 1.59-1.579.866 0 1.579.713 1.579 1.58zm4.488 4.7a.863.863 0 1 1-1.727.007.863.863 0 0 1 1.727-.007zm15.467 3.525a.612.612 0 1 1-1.224.007.612.612 0 0 1 1.224-.007zm.675-4.874c0 .732-.588 1.32-1.31 1.32-.723 0-1.32-.588-1.32-1.32 0-.722.597-1.31 1.32-1.31.722 0 1.31.588 1.31 1.31zM43.45 62.474c0 .944-.77 1.724-1.724 1.724s-1.724-.78-1.724-1.724c0-.953.77-1.724 1.724-1.724s1.724.77 1.724 1.724zM23.976 73.03a.87.87 0 0 1-.405.732c-.443-.28-.876-.568-1.3-.867a.853.853 0 0 1 .848-.732c.471 0 .857.386.857.867zm24.588 2.947a1.204 1.204 0 0 1-2.408 0c0-.655.54-1.194 1.204-1.194.665 0 1.204.54 1.204 1.194z"/></svg>