<svg xmlns="http://www.w3.org/2000/svg" enable-background="new 0 0 5320 3547" viewBox="0 0 5320 3547"><rect width="5320" height="3547" fill="#fff"/><path fill="#dce1e5" d="M714.96,3027.6c0,0-411.24-339.63-288.48-933.98s570.83-764.16,730.41-960.1s270.07-613.94,669.03-620.47
							c398.97-6.53,540.14,52.25,945.24-39.19s810.21,0,1018.9,372.28c208.69,372.28,282.34,241.66,484.9,450.66
							c168.71,174.09,61.38,378.82,239.38,568.22s319.17,633.54-61.38,1162.57H714.96z"/><path fill="#dce1e5" d="M622.86,1428.99c-48.35,35.96-82.33,120.43-126.09,94.57c-46.23-27.32-23.12-113.48,20.69-168.75
							c47.05-59.36,112.99-97.93,147.43-79.23C738.44,1315.51,704.81,1368.05,622.86,1428.99z"/><path fill="#dce1e5" d="M1245.4,895.09c-132.4,193.34-324.53,272.39-439.22,203.85c-182.83-109.28-92.47-285.81,33.62-449.73
							c116.46-151.4,212.25-323.63,384.58-235.37C1396.68,502.09,1353.32,737.48,1245.4,895.09z"/><ellipse cx="4028.72" cy="943.9" fill="#dce1e5" rx="99.64" ry="137.77" transform="rotate(-40.913 4028.854 943.949)"/><path fill="#dce1e5" d="M3581.5,519.45c-17.61,30.5-64.18-1.91-118.49-33.26s-106.99-46.41-89.38-76.91
							c17.61-30.5,87.05-31.35,141.35,0S3599.11,488.95,3581.5,519.45z"/><path fill="#dce1e5" d="M4747.26,1519.94c51.94,166.71,39.7,334.27-33.97,341.74c-134.07,13.59-205.09-125.19-223.06-298.88
							c-20.57-198.88-140.88-237.8-67.42-290.11C4527.21,1198.33,4695.32,1353.22,4747.26,1519.94z"/><ellipse cx="2686.36" cy="3065.26" fill="#46843d" rx="2230.05" ry="95.66"/><path fill="#82d379" d="M2464.71,2830.64c208.84-184.07,388.64-369.73,534.41-551.82c116.72-145.8,212.02-289.68,283.26-427.64
							c121.68-235.64,130.86-370.57,131.19-376.19l-16.82-1c0,0,0,0,0,0.01l0,0c-0.11,1.75-9.76,138.35-130.09,370.9
							c-111.3,215.09-342.71,558.51-813.09,973.1L2464.71,2830.64z"/><path fill="#82d379" d="M3390.09,1551.55c0,0,82.53-126.95,20.32-139.12C3348.2,1400.25,3390.09,1551.55,3390.09,1551.55z"/><path fill="#82d379" d="M3322.67,1748.28c0,0,95.26-126.18,125.91-78.58S3322.67,1748.28,3322.67,1748.28z"/><path fill="#82d379" d="M3322.67,1748.28c0,0,17.83-149.56-34.07-135.37C3236.7,1627.1,3322.67,1748.28,3322.67,1748.28z"/><path fill="#82d379" d="M3202.22,1975.58c0,0,150.67-108.42,167.15-44.3C3386.98,1999.78,3202.22,1975.58,3202.22,1975.58z"/><path fill="#82d379" d="M3202.22,1975.58c0,0,50.65-170.75-25.75-163.66C3100.07,1819.01,3202.22,1975.58,3202.22,1975.58z"/><path fill="#82d379" d="M3046.51,2201.45c0,0,191.82-113.21,204.57-29.26C3263.38,2253.2,3046.51,2201.45,3046.51,2201.45z"/><path fill="#82d379" d="M3046.51,2201.45c0,0,66.75-215.86-18.93-189.92C2944.04,2036.83,3046.51,2201.45,3046.51,2201.45z"/><path fill="#82d379" d="M2893.48,2392.4c0,0,242.87-77.62,236.99,17.86C3123.63,2521.58,2893.48,2392.4,2893.48,2392.4z"/><path fill="#82d379" d="M2893.48,2392.4c0,0,58.42-228.6-30.72-231.07C2740.51,2157.93,2893.48,2392.4,2893.48,2392.4z"/><path fill="#82d379" d="M2707.59,2586.51c0,0,279.47-56.99,244.46,57.47C2914.77,2765.87,2707.59,2586.51,2707.59,2586.51z"/><path fill="#82d379" d="M2713.28,2585.65c0,0,21.36-249.19-83.73-196.83C2549.74,2428.58,2713.28,2585.65,2713.28,2585.65z"/><path fill="#82d379" d="M2562.59,2733.67c0,0,224.79-5.03,207.35,71.83C2740.03,2937.42,2562.59,2733.67,2562.59,2733.67z"/><path fill="#82d379" d="M2562.59,2733.67c0,0,20.54-209.75-74.11-191.01C2373.81,2565.36,2562.59,2733.67,2562.59,2733.67z"/><path fill="#46843d" d="M2500.35,2695.62c37.84-12.56,73.52-25.97,107.14-40.07c350.51-147.24,478.27-374.77,504.41-596.35
						c40.17-340.15-159.11-666.3-159.11-666.3c-38.77,137.06-309.48,245.74-460.22,595.63
						C2341.81,2338.42,2500.35,2695.62,2500.35,2695.62z"/><path fill="#46843d" d="M2607.49,2655.55c350.51-147.24,478.27-374.77,504.41-596.35c-73.97,22.68-268.31,94.96-394.18,257.68
						C2632.7,2426.76,2583.37,2579.01,2607.49,2655.55z"/><path fill="#62c35a" d="M2500.35,2702.82c-1.83,0-3.67-0.7-5.07-2.1c-2.82-2.8-2.83-7.36-0.02-10.17
							c225.59-226.62,337.92-550.16,392.42-781.68c59.12-251.11,64.84-450.9,64.89-452.89c0.1-3.97,3.49-7.18,7.37-7.01
							c3.97,0.1,7.11,3.4,7.01,7.38c-0.05,2-5.81,203.28-65.27,455.82c-34.94,148.38-81.31,285.24-137.82,406.78
							c-70.74,152.13-157.68,280.57-258.41,381.76C2504.05,2702.12,2502.2,2702.82,2500.35,2702.82z"/><path fill="#62c35a" d="M2917.95,1808.45c-2.19,0-4.35-0.99-5.76-2.88c-54.47-72.77-98.64-187.63-100.5-192.48
							c-1.42-3.71,0.44-7.87,4.16-9.29c3.71-1.41,7.87,0.45,9.28,4.15c0.45,1.17,45.32,117.86,98.57,188.99
							c2.38,3.18,1.73,7.69-1.45,10.07C2920.96,1807.98,2919.45,1808.45,2917.95,1808.45z"/><path fill="#62c35a" d="M2938.56,1687.02c-3.02,0-5.83-1.91-6.83-4.93c-1.25-3.77,0.79-7.84,4.56-9.1
							c61.32-20.38,96.23-66.03,96.58-66.49c2.39-3.17,6.89-3.81,10.07-1.43c3.17,2.39,3.82,6.89,1.44,10.06
							c-1.51,2.02-37.79,49.65-103.55,71.5C2940.07,1686.91,2939.31,1687.02,2938.56,1687.02z"/><path fill="#62c35a" d="M2871.38,2009.99c-3.13,0-6.01-2.05-6.91-5.21c-1.1-3.82,1.11-7.8,4.93-8.9
							c114.29-32.85,213.69-110.08,214.68-110.85c3.13-2.45,7.65-1.9,10.1,1.23c2.45,3.13,1.9,7.65-1.23,10.1
							c-1.01,0.79-102.53,79.71-219.58,113.35C2872.71,2009.89,2872.04,2009.99,2871.38,2009.99z"/><path fill="#62c35a" d="M2755.95,2326.91c-3.23,0-6.17-2.19-6.98-5.47c-0.95-3.86,1.4-7.76,5.26-8.71
							c168.1-41.48,297.3-158.38,298.59-159.56c2.93-2.69,7.48-2.48,10.16,0.45c2.68,2.93,2.48,7.48-0.45,10.16
							c-1.31,1.2-133.1,120.54-304.86,162.91C2757.1,2326.84,2756.52,2326.91,2755.95,2326.91z"/><path fill="#62c35a" d="M2818.53,2173.14c-1.64,0-3.29-0.56-4.64-1.7c-3.38-2.86-83.54-71.86-149.38-227.75
							c-1.55-3.66,0.17-7.88,3.83-9.43c3.66-1.55,7.88,0.17,9.43,3.83c64.38,152.44,144.62,221.68,145.42,222.36
							c3.03,2.57,3.4,7.11,0.83,10.14C2822.6,2172.28,2820.58,2173.14,2818.53,2173.14z"/><path fill="#62c35a" d="M2658.61,2507.68c-2.01,0-4-0.83-5.42-2.46c-79.67-91.29-130.08-236.49-130.58-237.94
							c-1.29-3.76,0.71-7.85,4.47-9.14c3.74-1.3,7.85,0.71,9.14,4.47c0.49,1.43,50.02,144.02,127.82,233.16
							c2.61,2.99,2.3,7.54-0.69,10.15C2661.98,2507.1,2660.29,2507.68,2658.61,2507.68z"/><g><path fill="#62c35a" d="M2481.48,3087.12c0,0-37.79-388.97,215.6-673.48s544.56-302.29,624.58-420.09
						C3321.66,1993.55,3575.04,3087.12,2481.48,3087.12z"/><path fill="#46843d" d="M2481.48,3094.31c-2.63,0-5.17-1.45-6.43-3.96c-1.79-3.55-0.36-7.87,3.19-9.66
							c285.54-143.91,494.17-415.52,618.91-618.04c135.3-219.65,203.73-407.44,204.4-409.31c1.35-3.74,5.48-5.68,9.21-4.32
							c3.74,1.35,5.67,5.47,4.32,9.21c-0.68,1.89-69.62,191.07-205.69,411.97c-79.94,129.79-167.11,245.04-259.07,342.55
							c-115.11,122.06-238.12,216.53-365.62,280.79C2483.68,3094.06,2482.57,3094.31,2481.48,3094.31z"/><path fill="#46843d" d="M3159.81,2377.27c-3.01,0-5.82-1.91-6.83-4.92c-28.74-86.23-34.44-209.17-34.67-214.36
							c-0.17-3.97,2.9-7.33,6.87-7.5c4.06-0.18,7.33,2.9,7.51,6.87c0.05,1.25,5.84,126.14,33.94,210.44
							c1.26,3.77-0.78,7.85-4.55,9.1C3161.33,2377.15,3160.56,2377.27,3159.81,2377.27z"/><path fill="#46843d" d="M3217.66,2268.53c-3.97,0-7.19-3.22-7.19-7.19c0-3.97,3.22-7.19,7.19-7.19
							c64.61,0,112.15-32.31,112.62-32.64c3.26-2.26,7.74-1.44,10.01,1.82c2.26,3.26,1.45,7.74-1.81,10
							C3336.4,2234.77,3286.95,2268.53,3217.66,2268.53z"/><path fill="#46843d" d="M3071.81,2554.23c-6.67,0-13.35-0.13-20.04-0.4c-3.97-0.16-7.06-3.51-6.89-7.48
							c0.16-3.97,3.55-7.07,7.48-6.89c118.82,4.87,237.5-37.07,238.69-37.49c3.73-1.33,7.85,0.6,9.2,4.35
							c1.34,3.74-0.61,7.86-4.34,9.2C3294.76,2515.91,3186.43,2554.23,3071.81,2554.23z"/><path fill="#46843d" d="M2888.49,2819.96c-15.32,0-30.83-0.56-46.47-1.8c-3.96-0.31-6.92-3.78-6.6-7.74
							c0.31-3.96,3.75-6.9,7.74-6.6c172.57,13.64,332.07-56.54,333.66-57.25c3.64-1.62,7.89,0.01,9.5,3.63
							c1.62,3.63,0,7.88-3.63,9.5C3181.21,2760.36,3045.94,2819.96,2888.49,2819.96z"/><path fill="#46843d" d="M2950.47,2692c-2.43,0-4.79-1.23-6.15-3.45c-2.3-3.78-56.61-94.54-69.93-263.24
							c-0.31-3.96,2.64-7.42,6.61-7.74c3.9-0.28,7.42,2.64,7.74,6.61c13.02,164.96,67.33,255.98,67.88,256.88
							c2.06,3.39,0.99,7.82-2.41,9.88C2953.04,2691.66,2951.74,2692,2950.47,2692z"/><path fill="#46843d" d="M2693.2,2959.04c-2.81,0-5.48-1.66-6.64-4.42c-46.82-111.76-48.87-265.45-48.88-266.99
							c-0.04-3.97,3.15-7.22,7.12-7.26c0.03,0,0.05,0,0.08,0c3.94,0,7.15,3.17,7.19,7.12c0.01,1.51,2.05,152.45,47.76,261.57
							c1.53,3.66-0.19,7.88-3.86,9.41C2695.07,2958.86,2694.13,2959.04,2693.2,2959.04z"/></g><g><path fill="#82d379" d="M1563.74,2670.68c-208.84-184.07-388.64-369.73-534.41-551.82c-116.72-145.8-212.02-289.68-283.26-427.64
							c-121.68-235.64-130.86-370.57-131.19-376.19l16.82-1c0,0,0,0,0,0.01l0,0c0.11,1.75,9.76,138.35,130.09,370.9
							c111.3,215.09,342.71,558.51,813.09,973.1L1563.74,2670.68z"/><path fill="#82d379" d="M638.36,1391.59c0,0-82.53-126.95-20.32-139.12C680.25,1240.29,638.36,1391.59,638.36,1391.59z"/><path fill="#82d379" d="M705.79,1588.32c0,0-95.26-126.18-125.91-78.58S705.79,1588.32,705.79,1588.32z"/><path fill="#82d379" d="M705.79,1588.32c0,0-17.83-149.56,34.07-135.37C791.75,1467.14,705.79,1588.32,705.79,1588.32z"/><path fill="#82d379" d="M826.23,1815.62c0,0-150.67-108.42-167.15-44.3C641.47,1839.82,826.23,1815.62,826.23,1815.62z"/><path fill="#82d379" d="M826.23,1815.62c0,0-50.65-170.76,25.75-163.66S826.23,1815.62,826.23,1815.62z"/><path fill="#82d379" d="M981.94,2041.49c0,0-191.82-113.21-204.57-29.26C765.07,2093.24,981.94,2041.49,981.94,2041.49z"/><path fill="#82d379" d="M981.94,2041.49c0,0-66.75-215.86,18.93-189.92C1084.41,1876.87,981.94,2041.49,981.94,2041.49z"/><path fill="#82d379" d="M1134.97,2232.44c0,0-242.87-77.62-236.99,17.86C904.83,2361.61,1134.97,2232.44,1134.97,2232.44z"/><path fill="#82d379" d="M1134.97,2232.44c0,0-58.42-228.6,30.72-231.07C1287.94,1997.97,1134.97,2232.44,1134.97,2232.44z"/><path fill="#82d379" d="M1320.86,2426.55c0,0-279.47-56.99-244.46,57.47C1113.68,2605.91,1320.86,2426.55,1320.86,2426.55z"/><path fill="#82d379" d="M1315.17,2425.69c0,0-21.36-249.19,83.73-196.83C1478.71,2268.62,1315.17,2425.69,1315.17,2425.69z"/><path fill="#82d379" d="M1465.86,2573.71c0,0-224.79-5.03-207.35,71.83C1288.43,2777.46,1465.86,2573.71,1465.86,2573.71z"/><path fill="#82d379" d="M1465.86,2573.71c0,0-20.54-209.75,74.11-191.02C1654.64,2405.4,1465.86,2573.71,1465.86,2573.71z"/></g><g><path fill="#46843d" d="M1528.11,2535.66c-37.84-12.56-73.52-25.97-107.14-40.07c-350.51-147.24-478.27-374.77-504.41-596.35
						c-40.17-340.15,159.11-666.3,159.11-666.3c38.77,137.06,309.48,245.74,460.22,595.63
						C1686.64,2178.46,1528.11,2535.66,1528.11,2535.66z"/><path fill="#46843d" d="M1420.97,2495.59c-350.51-147.24-478.27-374.77-504.41-596.35c73.97,22.68,268.31,94.96,394.18,257.68
						C1395.75,2266.8,1445.08,2419.05,1420.97,2495.59z"/><path fill="#62c35a" d="M1528.09,2542.86c-1.85,0-3.69-0.71-5.1-2.12c-100.73-101.19-187.67-229.63-258.41-381.75
							c-56.52-121.54-102.89-258.4-137.82-406.78c-59.46-252.54-65.22-453.81-65.27-455.82c-0.1-3.97,3.04-7.27,7.01-7.38
							c0.06,0,0.13,0,0.19,0c3.89,0,7.09,3.1,7.19,7.01c0.05,1.99,5.8,202.04,64.96,453.19
							c54.52,231.42,166.84,554.83,392.35,781.37c2.8,2.82,2.79,7.37-0.02,10.17C1531.77,2542.16,1529.93,2542.86,1528.09,2542.86z"/><path fill="#62c35a" d="M1110.5,1648.49c-1.5,0-3.01-0.47-4.31-1.43c-3.18-2.38-3.83-6.89-1.45-10.07
							c53.25-71.14,98.13-187.83,98.58-189c1.42-3.71,5.58-5.57,9.28-4.15c3.71,1.42,5.57,5.58,4.16,9.29
							c-1.85,4.85-46.03,119.72-100.5,192.48C1114.86,1647.5,1112.69,1648.49,1110.5,1648.49z"/><path fill="#62c35a" d="M1089.89,1527.06c-0.75,0-1.51-0.12-2.27-0.37c-65.75-21.85-102.04-69.49-103.55-71.5
							c-2.38-3.18-1.74-7.69,1.44-10.07c3.18-2.39,7.68-1.74,10.07,1.43c0.34,0.46,35.26,46.11,96.58,66.49
							c3.77,1.25,5.81,5.33,4.56,9.1C1095.72,1525.15,1092.91,1527.06,1089.89,1527.06z"/><path fill="#62c35a" d="M1157.07,1850.02c-0.66,0-1.33-0.09-1.99-0.28c-117.06-33.64-218.57-112.56-219.58-113.35
							c-3.13-2.45-3.68-6.97-1.23-10.1c2.45-3.13,6.97-3.68,10.1-1.23c0.99,0.78,100.39,78,214.68,110.85
							c3.82,1.1,6.03,5.08,4.93,8.9C1163.07,1847.97,1160.19,1850.02,1157.07,1850.02z"/><path fill="#62c35a" d="M1272.5,2166.95c-0.57,0-1.15-0.07-1.73-0.21c-171.75-42.38-303.54-161.71-304.85-162.91
							c-2.93-2.68-3.13-7.23-0.45-10.16c2.68-2.93,7.24-3.13,10.16-0.45c1.29,1.17,130.49,118.08,298.58,159.56
							c3.86,0.95,6.21,4.85,5.26,8.71C1278.67,2164.75,1275.73,2166.95,1272.5,2166.95z"/><path fill="#62c35a" d="M1209.92,2013.18c-2.04,0-4.07-0.87-5.49-2.54c-2.57-3.03-2.19-7.57,0.83-10.14
							c0.8-0.68,81.04-69.93,145.42-222.37c1.54-3.66,5.77-5.37,9.43-3.83c3.66,1.55,5.37,5.77,3.83,9.43
							c-65.84,155.89-146,224.89-149.38,227.75C1213.21,2012.62,1211.56,2013.18,1209.92,2013.18z"/><path fill="#62c35a" d="M1369.84,2347.72c-1.68,0-3.36-0.58-4.73-1.77c-3-2.61-3.3-7.16-0.69-10.15
							c77.8-89.14,127.33-231.73,127.82-233.16c1.29-3.75,5.38-5.76,9.14-4.47c3.76,1.29,5.76,5.38,4.47,9.14
							c-0.5,1.46-50.91,146.66-130.59,237.95C1373.84,2346.89,1371.84,2347.72,1369.84,2347.72z"/></g><g><path fill="#62c35a" d="M1546.97,2927.15c0,0,37.79-388.97-215.6-673.48s-544.56-302.29-624.58-420.09
						C706.79,1833.59,453.41,2927.15,1546.97,2927.15z"/><path fill="#46843d" d="M1546.97,2934.35c-1.09,0-2.19-0.25-3.23-0.77c-127.5-64.26-250.51-158.73-365.62-280.79
							c-91.96-97.51-179.13-212.76-259.07-342.55c-136.07-220.9-205.01-410.09-205.69-411.97c-1.35-3.74,0.59-7.86,4.32-9.21
							c3.73-1.33,7.86,0.58,9.21,4.32c0.68,1.87,69.21,189.9,204.57,409.58c124.71,202.42,333.3,473.9,618.75,617.77
							c3.55,1.79,4.97,6.11,3.19,9.66C1552.13,2932.9,1549.6,2934.35,1546.97,2934.35z"/><path fill="#46843d" d="M868.65,2217.31c-0.75,0-1.52-0.12-2.28-0.37c-3.77-1.26-5.81-5.33-4.55-9.1
							c28.1-84.3,33.89-209.19,33.94-210.44c0.18-3.97,3.5-7.05,7.51-6.87c3.97,0.17,7.05,3.53,6.87,7.5
							c-0.23,5.19-5.93,128.12-34.67,214.36C874.47,2215.4,871.66,2217.31,868.65,2217.31z"/><path fill="#46843d" d="M810.79,2108.57c-69.29,0-118.74-33.76-120.81-35.2c-3.27-2.27-4.07-6.75-1.81-10.01
							c2.27-3.27,6.75-4.07,10.01-1.81c0.76,0.52,48.19,32.63,112.61,32.63c3.97,0,7.19,3.22,7.19,7.19
							S814.76,2108.57,810.79,2108.57z"/><path fill="#46843d" d="M956.64,2394.27c-114.62,0-222.94-38.31-224.09-38.72c-3.74-1.34-5.68-5.46-4.34-9.2
							c1.34-3.74,5.47-5.68,9.2-4.35c1.19,0.43,119.9,42.37,238.68,37.49c3.88-0.1,7.32,2.92,7.48,6.89
							c0.16,3.97-2.92,7.32-6.89,7.48C969.99,2394.14,963.3,2394.27,956.64,2394.27z"/><path fill="#46843d" d="M1139.97,2660c-157.46,0-292.73-59.6-294.21-60.26c-3.63-1.62-5.25-5.88-3.63-9.5
							c1.62-3.63,5.86-5.26,9.5-3.63c1.59,0.71,161.09,70.92,333.67,57.25c3.95-0.28,7.43,2.64,7.74,6.6
							c0.31,3.96-2.64,7.43-6.6,7.74C1170.8,2659.43,1155.28,2660,1139.97,2660z"/><path fill="#46843d" d="M1077.98,2532.04c-1.28,0-2.57-0.34-3.74-1.05c-3.39-2.07-4.47-6.49-2.41-9.88
							c0.55-0.9,54.85-91.91,67.88-256.88c0.31-3.96,3.85-6.91,7.74-6.61c3.96,0.31,6.92,3.78,6.61,7.74
							c-13.32,168.7-67.63,259.46-69.93,263.24C1082.77,2530.81,1080.4,2532.04,1077.98,2532.04z"/><path fill="#46843d" d="M1335.25,2799.07c-0.93,0-1.87-0.18-2.78-0.56c-3.66-1.53-5.39-5.75-3.86-9.41
							c45.71-109.12,47.75-260.06,47.77-261.57c0.04-3.95,3.25-7.12,7.19-7.12c0.03,0,0.05,0,0.08,0c3.97,0.04,7.16,3.29,7.12,7.26
							c-0.02,1.54-2.07,155.23-48.89,266.98C1340.73,2797.41,1338.06,2799.07,1335.25,2799.07z"/></g><g><polygon fill="#ffbe60" points="2826.23 3097.71 1387.05 3097.71 1548.88 1528.88 2660.8 1528.88"/><circle cx="1780.94" cy="1665.54" r="71.83" fill="#fff"/><circle cx="2419.88" cy="1665.54" r="71.83" fill="#fff"/><path fill="#e5a248" d="M2414.76,1663.1c-0.87,0-1.75-0.04-2.64-0.12c-15.83-1.44-27.49-15.44-26.05-31.26
						c0.32-3.58,30.7-360.57-113.82-518.7c-45.13-49.39-101.34-73.39-171.84-73.39c-70.67,0-127.43,24.12-173.52,73.73
						c-147.14,158.38-122.67,515.27-122.41,518.85c1.17,15.85-10.73,29.64-26.57,30.82c-15.88,1.17-29.64-10.72-30.82-26.56
						c-1.16-15.65-26.62-385.35,137.56-562.2c56.79-61.17,129.38-92.19,215.76-92.19c86.39,0,158.53,31.02,214.4,92.2
						c161.6,176.95,130,546.99,128.58,562.66C2442.02,1651.87,2429.47,1663.1,2414.76,1663.1z"/><polygon fill="#e6e6e6" points="2299.79 2153.54 2204.03 2214.57 2093.01 2057.62 2199.49 2009.59"/><path fill="#fff" d="M2199.49,2009.59c0,0-46.93-52.56-88-53.79c-64.42-1.94-171.44,165.66-171.44,165.66l-61.62-34.73
									l2.88,208.24l213.34-66.4l-66.83-51.37c0,0,58.13-75.81,79.4-99.47C2154.86,2024.73,2199.49,2009.59,2199.49,2009.59z"/><polygon fill="#e6e6e6" points="1793.02 2312.38 1896.87 2358.29 1827.74 2537.67 1728.75 2475.64"/><path fill="#fff" d="M1728.75,2475.64c0,0-17.75,68.19,3.98,103.06c34.08,54.7,232.9,50.93,232.9,50.93l5.23,70.54
									l171.75-117.78l-173.48-140.81l-5.74,84.09c0,0-95.31-6.39-126.8-10.98C1766.09,2504.4,1728.75,2475.64,1728.75,2475.64z"/><polygon fill="#e6e6e6" points="2211.67 2668.93 2204.02 2555.63 2394.98 2533.43 2386.09 2649.91"/><path fill="#fff" d="M2386.09,2649.91c0,0,68.62-15.99,89.4-51.44c32.58-55.61-63.2-229.87-63.2-229.87l60.02-37.42
									l-184.13-97.29l-44,219.06l77.12-34.02c0,0,38.66,87.35,49.23,117.36C2394.2,2603.48,2386.09,2649.91,2386.09,2649.91z"/><polygon fill="#e5a248" points="1387.05 3097.71 1256.09 2988.49 1548.88 1528.88"/></g><g><path fill="#905640" d="M4342.88,1176.64c0,0-0.02,0-0.06,0.03c-2.42,0.85-81,28.34-115.99-13.43
						c-25.42-30.34-33.54-44.69-62.85-133.07c-29.31-88.4-86.65-70.12-86.65-70.12l33.78-58.36c0,0,8.71-5.67,21.61-10.11
						c21.55-7.48,54.8-11.49,78.52,20.2C4249.15,962.43,4221.29,1131.35,4342.88,1176.64z"/><path fill="#905640" d="M4342.82,1176.67c-2.42,0.85-81,28.34-115.99-13.43c-25.42-30.34-33.54-44.69-62.85-133.07
						c-29.31-88.4-86.65-70.12-86.65-70.12l33.78-58.36c0,0,8.71-5.67,21.61-10.11c43.95,24.6,55.43,84.68,70.24,172.04
						C4227.41,1207.92,4340.06,1177.47,4342.82,1176.67z" opacity=".5"/><path fill="#905640" d="M4181.15,1017.17c-5,76.44-61.91,151.31-134.71,138.28c-76.52-13.69-103.36-14.51-112.78-13.44l-0.02,0
								c-4.99,0.58-5.06,1.7-5.06,1.7s-10.36-15.7-26.27-64.01c-11.93-36.23-36.84-93.47-12.44-133.69c0-0.02,0.02-0.04,0.02-0.04
								c8.16-13.41,21.82-24.92,43.26-33.12c0,0,74.63-92.29,190.66-18C4167.85,923.03,4184.22,970.4,4181.15,1017.17z"/><path fill="#ffcaac" d="M3925.66,3055.46l88.71,15.48c0,0,124.73-57.83,111.48-146.28c-6.74-44.76,10.36-151.39,20.88-286.49
								c9.72-123.72,13.89-271.43-10.78-417.47c-1.59-9.46-5.96-164.51-7.82-173.96l-137.36,2.51c0,0,5.23,175.69,9.13,223.67
								c13.78,169.05,37.28,560.58,29.91,643.55C4020.38,3023.01,3925.66,3055.46,3925.66,3055.46z"/><path fill="#ffcaac" d="M3919.39,3028.34c0,0,0,0,0.01,0.02c0.85,1.22,29.98,42.59,65.37,32.54
							c11.65-3.31,24.99-11.07,38.12-20.48c1.64-1.16,3.24-2.34,4.87-3.54c31.07-23.26,59.6-53.87,59.6-53.87
							c17.84-32.3,39.44-57.34,39.44-57.34l-0.79-0.42l-26.2-13.52l-69.66,15.19c0,0-17.62,34.53-41.68,56.29
							c-2.57,2.32-5.11,5.25-8.24,7.89c0,0,0,0-0.02-0.01c-4.37,3.71-9.43,7.41-14.7,10.95c-13.21,8.93-27.81,16.9-36.97,21.65
							c-0.01,0.02-0.02,0.01-0.02,0.01c-4.88,2.54-8.21,4.17-8.97,4.53c-0.02,0.01-0.05,0.03-0.08,0.06
							C3919.42,3028.32,3919.39,3028.34,3919.39,3028.34z"/><path fill="#32303b" d="M4126.45,2924.64c0,0-67.32,105.5-132.57,111.54c-44.52,4.12-55.53-18.5-55.53-18.5
							c-25.43,7.87-43.45,35.53-23.24,54.35c17.88,16.65,52.72,24.65,90.01,17.35c35.39-6.93,108.69-55.24,121.59-68.62
							C4151.15,2995.41,4126.45,2924.64,4126.45,2924.64z"/><path fill="#32303b" d="M3965.52,3002.05c6.49,3.31,34.86,18.11,49.94,30.76c3.18,2.67,5.78,5.25,7.43,7.6
						c0.43,0.59,0.79,1.19,1.1,1.77l3.77-5.31l8.66-12.25c0,0-1.05-0.94-2.93-2.5c-7.85-6.56-30.39-24.16-53.25-31.03
						c0,0,0,0-0.02-0.01C3975.84,2994.81,3970.79,2998.51,3965.52,3002.05z"/><path fill="#ffcaac" d="M3725.09,3055.46l88.71,15.48c0,0,124.73-57.83,111.48-146.28c-6.74-44.76,10.36-151.39,20.88-286.49
								c9.72-123.72,13.89-271.43-10.78-417.47c-1.59-9.46-5.96-164.51-7.82-173.96l-137.36,2.51c0,0,5.23,175.69,9.13,223.67
								c13.78,169.05,37.28,560.58,29.91,643.55C3819.8,3023.01,3725.09,3055.46,3725.09,3055.46z"/><path fill="#ffcaac" d="M3718.82,3028.34c0,0,0,0,0.01,0.02c0.85,1.22,29.98,42.59,65.37,32.54
							c11.65-3.31,24.99-11.07,38.12-20.48c1.64-1.16,3.24-2.34,4.87-3.54c31.07-23.26,59.6-53.87,59.6-53.87
							c17.84-32.3,39.44-57.34,39.44-57.34l-0.79-0.42l-26.2-13.52l-69.66,15.19c0,0-17.62,34.53-41.68,56.29
							c-2.57,2.32-5.11,5.25-8.24,7.89c0,0,0,0-0.02-0.01c-4.37,3.71-9.43,7.41-14.7,10.95c-13.21,8.93-27.81,16.9-36.97,21.65
							c-0.01,0.02-0.02,0.01-0.02,0.01c-4.88,2.54-8.21,4.17-8.97,4.53c-0.02,0.01-0.05,0.03-0.08,0.06
							C3718.85,3028.32,3718.82,3028.34,3718.82,3028.34z"/><path fill="#32303b" d="M3925.88,2924.64c0,0-67.32,105.5-132.57,111.54c-44.52,4.12-55.53-18.5-55.53-18.5
							c-25.43,7.87-43.45,35.53-23.24,54.35c17.88,16.65,52.72,24.65,90.01,17.35c35.39-6.93,108.69-55.24,121.59-68.62
							C3950.58,2995.41,3925.88,2924.64,3925.88,2924.64z"/><path fill="#32303b" d="M3764.95,3002.05c6.49,3.31,34.86,18.11,49.94,30.76c3.18,2.67,5.78,5.25,7.43,7.6
						c0.43,0.59,0.79,1.19,1.1,1.77l3.77-5.31l8.66-12.25c0,0-1.05-0.94-2.93-2.5c-7.85-6.56-30.4-24.16-53.25-31.03
						c0,0,0,0-0.02-0.01C3775.27,2994.81,3770.22,2998.51,3764.95,3002.05z"/><path fill="#4b3f6b" d="M3833.03,1718.14c0,0-100.57,275.81-124.99,635.65c0,0,110.45,49.13,259.15,53.81
					c152.67,4.81,277.14-51.91,277.14-51.91s-44.12-473.42-137-637.55H3833.03z"/><path fill="#ffcaac" d="M3985.93,1314.93c98.78-1.35,86.58-73.74,86.58-73.74c-11.68-11-18.62-21.14-19.83-42.74
								c-0.41-7.36-0.41-14.83-0.17-22.11c0.17-5.53,0.52-10.94,0.95-16.07c1.81-22.46,5.32-39.78,5.32-39.78l-53.93,36.65
								l-33.53,22.77c-0.24,2.19-0.53,4.31-0.86,6.35c-0.88,5.53-2.07,10.53-3.5,15.07c-10.99,35.42-32.94,30.79-32.94,30.79
								C3905.23,1298.82,3965.94,1315.21,3985.93,1314.93z"/><path fill="#fc9b78" d="M3970.46,1186.28c7.22,3.38,40.46,17.52,82.22,12.18c-0.41-7.36-0.41-14.83-0.17-22.11
							c0.17-5.53,0.52-10.94,0.95-16.07c-17.18-2.08-34.29-3.75-48.61-3.13l-33.53,22.77
							C3971.08,1182.11,3970.8,1184.24,3970.46,1186.28z"/><path fill="#ffcaac" d="M4107.85,1106.96c-21.22,65.52-87.8,83.05-120.32,79.28c-23.98-2.75-59.58-34.46-70.45-64.9
								c-10.96-30.65-23.07-62.72-13.84-120.21c1.38-8.61,36.11-58.83,36.11-58.83s22.82,25,51.19,42.29
								c51.68,31.47,100.23,26.06,115.72,71.95c0.14,0.36,0.25,0.72,0.39,1.11l0.01,0.11c0.34,0.93,0.6,1.87,0.9,2.81
								C4111.93,1075.56,4112.92,1091.32,4107.85,1106.96z"/><path fill="#fc9b78" d="M4107.19,1060.9c-8.34-18.83-38.24-36.54-89.98-54.74c-52.28-18.39-77.5-47.34-77.5-47.34
					c-9.74,7.06-36.47,42.32-36.47,42.32c1.38-8.61,36.11-58.83,36.11-58.83s22.82,25,51.19,42.29
					c51.68,31.47,100.23,26.06,115.72,71.95c0.14,0.36,0.25,0.72,0.39,1.11l0.01,0.11C4107.02,1059.8,4107.19,1060.9,4107.19,1060.9
					z"/><path fill="#ffcaac" d="M4107.2,1060.88c0,0,31.79,1.34,27.28,31.18c-3.54,23.46-35.53,25.17-35.53,25.17L4107.2,1060.88z"/><path fill="#c8cacc" d="M4086.22,1247.42c-0.03,0.05-0.11,0.13-0.19,0.24c0.19-0.18,0.28-0.29,0.28-0.29
							S4086.28,1247.39,4086.22,1247.42z"/><path fill="#f38f91" d="M3787.91,1788.34c0,0,189.12,62.21,391.83,1.63c0,0-27.77-55.22-41.57-163.31
						c0.03,0-4.95-142.67,0.94-159.14c29.2-81.88,56.32-149.04,29.26-198.49c-5.92-10.83-66.82-23.35-98.91-32.84l-11.49,15.75
						c-16.3,22.42-40.65,33.15-64.83,33.15c-30.95,0-45.91-19.97-59.11-52.95c0,0-62.71,1.58-109.3,36.74
						c0,0,5.11,188.05-0.53,286.75C3817.56,1671.91,3787.91,1788.34,3787.91,1788.34z"/><path fill="#ffcaac" d="M3519.07,1339.01l-1.96-0.58c-19.03-5.67-36.01-17.12-48.96-33.03l-22.58-27.74
						c0,0-30.35,10.14,0.19,55.4c0,0-87.05-7.2-121.19-22.31c0,0-23.14,21.75,47.39,53.11c70.53,31.37,129.26,29.02,147.91,40.96
						C3519.86,1404.81,3554.25,1373.28,3519.07,1339.01z"/><path fill="#e46179" d="M3824.73,1268.88c0,0-89,104.96-130.66,104.96s-187.64-43.27-187.64-43.27s5.72,30.11-15.81,75.53
					c0,0,150.92,77.87,208.53,76.84c80.44-1.44,132.81-58.83,132.81-58.83S3840.48,1317.62,3824.73,1268.88z"/><path fill="#ffcaac" d="M3826.8,1522.17l-2.09-0.47c-20.25-4.58-38.76-15.34-53.37-31.03l-25.49-27.36
						c0,0-30.94,12.69,4.07,57.77c0,0-91.3-1.43-127.96-14.81c0,0-22.62,24.3,53.13,52.09s136.84,21.24,157.13,32.39
						C3832.22,1590.75,3865.88,1555.46,3826.8,1522.17z"/><path fill="#e46179" d="M4149.62,1258.78c0,0-32.03,242.91-106.48,261.27c-66.59,16.43-231.71-8.07-231.71-8.07
					s3.72,48.41-18.62,73.54c0,0,185.21,70.38,293.17,42.31c90.73-23.59,108.05-182.37,108.05-182.37
					S4219.67,1271.91,4149.62,1258.78z"/></g><g><path fill="#83b145" d="M1572.49,1185.83c0,0-118.27,84.3-16.8,183.53C1555.69,1369.36,1639.36,1314.72,1572.49,1185.83z"/><path fill="#587032" d="M1602.04,1140.66c-10.47,12.66-18.94,27.89-25.87,43.32c-6.94,15.56-12.23,31.85-16.28,48.48
									c-1.6,8.4-3.68,16.73-4.62,25.26c-0.55,4.25-1.27,8.48-1.68,12.75l-0.98,12.84l-0.47,6.43l-0.08,6.44l-0.17,12.89
									c0.14,8.59,0.78,17.18,1.15,25.79c-0.68-8.58-1.63-17.15-2.08-25.76l-0.3-12.93l-0.15-6.47l0.24-6.47l0.52-12.95
									c0.26-4.31,0.83-8.6,1.23-12.91c0.65-8.64,2.43-17.12,3.76-25.69c3.49-16.97,8.27-33.73,14.79-49.88
									c6.63-16.16,14.39-31.68,25.39-46c1.25-1.62,3.58-1.93,5.2-0.68c1.62,1.25,1.93,3.58,0.68,5.2
									c-0.02,0.03-0.05,0.06-0.07,0.09L1602.04,1140.66z"/><path fill="#83b145" d="M3581.85,966.45c0,0-141.94-30.77-147.07,111.07C3434.78,1077.52,3531.51,1102.64,3581.85,966.45z"/><path fill="#587032" d="M3635.15,957.91c-16.41,0.78-33.37,4.76-49.45,10.01c-16.17,5.34-31.79,12.39-46.82,20.58
									c-7.29,4.46-14.86,8.54-21.8,13.58c-3.51,2.45-7.13,4.77-10.57,7.34l-10.15,7.91l-5.07,3.97l-4.82,4.27l-9.65,8.55
									c-6.27,5.88-12.18,12.14-18.3,18.2c5.89-6.27,11.59-12.75,17.66-18.87l9.37-8.92l4.69-4.46l4.95-4.17l9.93-8.33
									c3.36-2.71,6.92-5.17,10.38-7.77c6.83-5.34,14.3-9.72,21.53-14.51c14.9-8.84,30.52-16.58,46.85-22.63
									c16.41-5.97,33.12-10.67,51.12-12.17c2.04-0.17,3.83,1.35,4,3.39c0.17,2.04-1.35,3.83-3.39,4c-0.04,0-0.08,0.01-0.12,0.01
									L3635.15,957.91z"/><path fill="#83b145" d="M3911.79,504.72c0,0-28.92,142.33,112.98,145.61C4024.77,650.33,4048.64,553.28,3911.79,504.72z"/><path fill="#587032" d="M3902.56,451.53c0.99,16.4,5.19,33.31,10.65,49.31c5.55,16.1,12.8,31.63,21.19,46.55
									c4.56,7.23,8.73,14.74,13.86,21.62c2.5,3.48,4.86,7.07,7.47,10.47l8.05,10.05l4.04,5.02l4.33,4.76l8.68,9.54
									c5.96,6.19,12.3,12.02,18.44,18.06c-6.35-5.81-12.9-11.42-19.1-17.41l-9.04-9.25l-4.53-4.63l-4.24-4.89l-8.46-9.82
									c-2.75-3.33-5.26-6.85-7.91-10.27c-5.42-6.76-9.91-14.18-14.79-21.34c-9.03-14.79-16.98-30.3-23.24-46.55
									c-6.18-16.33-11.1-32.98-12.84-50.95c-0.2-2.04,1.3-3.85,3.33-4.05c2.04-0.2,3.85,1.3,4.05,3.33c0,0.04,0.01,0.08,0.01,0.12
									L3902.56,451.53z"/><path fill="#83b145" d="M2846.43,637.45c0,0-145.23,1.62-118.63,141.04C2727.8,778.49,2827.69,781.44,2846.43,637.45z"/><path fill="#587032" d="M2896.49,617.26c-15.82,4.41-31.47,12.07-45.98,20.77c-14.58,8.81-28.24,19.16-41.06,30.49
									c-6.11,5.97-12.58,11.63-18.23,18.09c-2.88,3.17-5.89,6.24-8.67,9.51l-8.14,9.98l-4.06,5l-3.75,5.24l-7.5,10.49
									c-4.8,7.13-9.17,14.55-13.79,21.82c4.34-7.42,8.46-15.01,13.01-22.33l7.14-10.78l3.58-5.4l3.89-5.17l7.82-10.33
									c2.68-3.39,5.59-6.58,8.38-9.89c5.47-6.72,11.78-12.67,17.76-18.94c12.56-11.94,26.06-22.96,40.63-32.49
									c14.67-9.47,29.91-17.78,47.12-23.25c1.95-0.62,4.04,0.46,4.66,2.41c0.62,1.95-0.46,4.04-2.41,4.66
									c-0.04,0.01-0.08,0.02-0.11,0.03L2896.49,617.26z"/><g><path fill="#83b145" d="M1348.81,582.53c0,0-140.91-35.18-150.46,106.43C1198.35,688.96,1294.25,717.09,1348.81,582.53z"/><path fill="#587032" d="M1402.36,575.66c-16.42,0.26-33.5,3.71-49.74,8.46c-16.33,4.83-32.17,11.39-47.44,19.11
									c-7.43,4.23-15.11,8.07-22.21,12.89c-3.59,2.34-7.28,4.54-10.79,7l-10.4,7.59l-5.19,3.81l-4.95,4.12l-9.91,8.25
									c-6.45,5.68-12.55,11.75-18.86,17.62c6.08-6.08,11.98-12.38,18.24-18.31l9.64-8.62l4.83-4.32l5.08-4.02l10.18-8.01
									c3.45-2.6,7.08-4.95,10.61-7.44c6.99-5.12,14.6-9.27,21.97-13.83c15.17-8.37,31.02-15.62,47.53-21.15
									c16.59-5.45,33.44-9.63,51.47-10.57c2.05-0.11,3.79,1.46,3.9,3.51c0.11,2.05-1.46,3.79-3.51,3.9c-0.04,0-0.08,0-0.12,0
									L1402.36,575.66z"/></g></g><g><path fill="#4b3f6b" d="M3242.91,539.56c23.38,0,23.42-36.34,0-36.34C3219.52,503.22,3219.48,539.56,3242.91,539.56
						L3242.91,539.56z"/><path fill="#e46179" d="M1406.2,1421.84c23.38,0,23.42-36.34,0-36.34C1382.82,1385.5,1382.78,1421.84,1406.2,1421.84
						L1406.2,1421.84z"/><path fill="#e46179" d="M1746.8,724.83c23.38,0,23.42-36.34,0-36.34C1723.42,688.49,1723.38,724.83,1746.8,724.83L1746.8,724.83z
						"/><path fill="#4b3f6b" d="M2483.05,953.08c23.38,0,23.42-36.34,0-36.34C2459.67,916.74,2459.63,953.08,2483.05,953.08
						L2483.05,953.08z"/><path fill="#4b3f6b" d="M3040.83,1203.9c23.38,0,23.42-36.34,0-36.34C3017.44,1167.56,3017.41,1203.9,3040.83,1203.9
						L3040.83,1203.9z"/><path fill="#fbc118" d="M3755.22,761.95c23.38,0,23.42-36.34,0-36.34C3731.84,725.61,3731.8,761.95,3755.22,761.95
						L3755.22,761.95z"/><path fill="#e46179" d="M921.87,1222.05c23.38,0,23.42-36.34,0-36.34C898.48,1185.71,898.45,1222.05,921.87,1222.05
						L921.87,1222.05z"/><path fill="#fbc118" d="M990.28,879.51c23.38,0,23.42-36.34,0-36.34C966.9,843.17,966.86,879.51,990.28,879.51L990.28,879.51z"/><path fill="#fbc118" d="M2240.11,560.39c23.38,0,23.42-36.34,0-36.34C2216.73,524.05,2216.69,560.39,2240.11,560.39
						L2240.11,560.39z"/></g></svg>