<svg xmlns="http://www.w3.org/2000/svg" enable-background="new 0 0 300 300" viewBox="0 0 300 300"><path fill="#c1c1c1" d="M65.5,218.6c21.1,0,21.1,6.9,42.3,6.9c21.1,0,21.1-6.9,42.3-6.9c21.1,0,21.1,6.9,42.3,6.9     c21.1,0,21.1-6.9,42.3-6.9c21.1,0,21.2,6.9,42.3,6.9c0.1,0,0.4,0,0.4,0v-55.4H22.8v55.4c0,0,0.3,0,0.5,0     C44.4,225.5,44.4,218.6,65.5,218.6z"/><rect width="254.5" height="6.9" x="22.8" y="163.2" fill="#8e8e8e"/><path fill="#fef6ea" d="M277.2,82.1c0-17.3-14-31.4-31.3-31.4H54.3c-17.3,0-31.5,14.1-31.5,31.4v81.1h254.5V82.1z"/><circle cx="149.9" cy="206.6" r="23.3" fill="#8e8e8e"/><circle cx="149.9" cy="206.6" r="17.3"/><circle cx="233.6" cy="206.6" r="23.3" fill="#8e8e8e"/><circle cx="233.6" cy="206.6" r="17.3"/><circle cx="66.3" cy="206.6" r="23.3" fill="#8e8e8e"/><circle cx="66.3" cy="206.6" r="17.3"/><path fill="#d0e7ff" d="M276.8,225.5c-21.1,0-21.2-6.9-42.3-6.9c-21.1,0-21.1,6.9-42.3,6.9    c-21.1,0-21.1-6.9-42.3-6.9c-21.1,0-21.1,6.9-42.3,6.9c-21.1,0-21.1-6.9-42.3-6.9c-21.1,0-21.1,6.9-42.2,6.9c-0.2,0-0.5,0-0.5,0    v23.8h254.5v-23.8C277.2,225.5,277,225.5,276.8,225.5z"/><path fill="none" stroke="#6198c6" stroke-miterlimit="10" stroke-width=".347" d="M112,241.7c-7,0-7,2.3-14.1,2.3c-7,0-7-2.3-14.1-2.3c-7,0-7,2.3-14.1,2.3    c-7,0-7-2.3-14.1-2.3c-7,0-7,2.3-14.1,2.3"/><path fill="none" stroke="#6198c6" stroke-miterlimit="10" stroke-width=".347" d="M186.2,242c-5.3,0-5.3,1.8-10.7,1.8c-5.3,0-5.3-1.8-10.7-1.8c-5.3,0-5.3,1.8-10.7,1.8    c-5.3,0-5.3-1.8-10.7-1.8c-5.3,0-5.3,1.8-10.7,1.8"/><path fill="none" stroke="#6198c6" stroke-miterlimit="10" stroke-width=".347" d="M270.9,242c-5.3,0-5.3,1.8-10.7,1.8c-5.3,0-5.3-1.8-10.7-1.8c-5.3,0-5.3,1.8-10.7,1.8    c-5.3,0-5.3-1.8-10.7-1.8c-5.3,0-5.3,1.8-10.7,1.8"/><polygon fill="#f7cc94" points="231.8 111.1 231.8 96.2 221.3 96.2 221.3 92.4 208.8 92.4 208.8 96.2 195 96.2 174.1 96.2 174.1 71.3 137 85.2 137 99 99.8 85.2 99.8 99 62.3 99 62.3 119.1 36 119.1 36 163.2 265.1 163.2 265.1 111.1"/><g><path fill="#f26b4a" d="M186.5,134.4c-1.7-7.3-17.4-30.2-36.7-30.2c-23.4,0-35.2,22.8-36.6,30.2      c-1.7,9,9.5,13.9,15.4,15.3v13.5H171v-13.4C176.6,148.9,188.5,143.1,186.5,134.4z"/><path fill="#fff" d="M156.1,126v6.2c0,1.4,1.2,2.5,2.6,2.5h3.5c1.4,0,2.6-1,2.6-2.5V126H156.1z"/><path fill="#350c06" d="M158.6,92.2c0.1,4.6-3.5,7.7-7.9,7.8c-4.4,0.1-8.1-3-8.1-7.5c-0.1-4.6,3.5-8.4,7.9-8.4    C154.8,83.9,158.5,87.6,158.6,92.2z"/><path fill="#fb9a78" d="M153.7,99.6h-7.1l-0.6,5.5c0,2,2.2,3.5,4.2,3.5h0c2,0,4.2-1.6,4.2-3.5L153.7,99.6z"/><path fill="none" stroke="#fff" stroke-miterlimit="10" stroke-width=".347" d="M145.3,105.2c0,2.3,2.6,4.1,4.9,4.1h0c2.3,0,4.9-1.9,4.9-4.1"/><path fill="#fb9a78" d="M144.2,88.9l13.5-0.2l0.1,6.2c0.1,4.3-1.6,8.7-5.8,7.9c-2.7-0.5-7.7-3.4-7.7-7.7    L144.2,88.9z"/><path fill="#350c06" d="M147,84.5c3.2-0.5,3.3-1,4.5-1.3c0.6-0.2,1.9,0.1,2.2,1.4c1.3-0.2,2.7,0.1,3.4,0.5    c0.9,0.5,2.3,1.7,2.3,3.5c-0.1,4.1-7.6,0.9-8.5,1.2c-1.1,0.5-2.3,0.6-3.3,0.5c-1.6,0.7-3.7,1.2-4,0.5    C141.9,86.2,146.5,84.4,147,84.5z"/><path fill="#350c06" d="M148.9,96.9c-1.9-0.8-1.4-4.3-1.4-4.3l0,0c0.2-0.4,0.3-0.9,0.3-1.4c0-1.6-1.1-2.9-2.5-2.9    c-1.3,0-2.4,1.4-2.4,3c0,1.6,1,2.9,2.3,2.9c0.3,0,0.5-0.1,0.8-0.2v0c1,3.7-2.4,6.4,5.9,9.1c3.3,1.1,5.4-2.2,5.8-5.7c0,0-1,0-1.4,0    C154.5,97.5,150.6,97.6,148.9,96.9z"/><ellipse cx="144.5" cy="93.9" fill="#fb9a78" rx="1.6" ry="1.8" transform="rotate(-54.535 144.555 93.923)"/><path fill="none" stroke="#000" stroke-miterlimit="10" stroke-width=".174" d="M145.3,94.8c0-0.7-0.8-1.3-1.5-1.3"/><path fill="none" stroke="#000" stroke-miterlimit="10" stroke-width=".174" d="M156.3,92.6c0,0-2.3-0.8-2.6,0.5c-0.2,1.3,1.6,4.1-1,4.1"/><path fill="none" stroke="#000" stroke-miterlimit="10" stroke-width=".174" d="M152.2,92.6c0,0-1.4-0.6-2.3,0.1"/><circle cx="155.3" cy="94" r=".4"/><circle cx="151.1" cy="94" r=".4"/><path fill="#fff" d="M151.2,98.3h4.1c0.2,0,0.3,0.2,0.2,0.4c-0.3,0.8-1.2,1.9-2.3,1.9c-1.1,0-2-1.1-2.3-1.9     C150.9,98.5,151,98.3,151.2,98.3z"/><path fill="#4e69c2" d="M163.9,162.2h-28c-0.1,0-0.7,0.2-0.7,0.1v-1.5c0-0.1,0.5-0.3,0.7-0.3h1l0.9-27.8    c0-0.8,0.9-1.4,2-1.4h20c1.1,0,2,0.6,2,1.4l0.9,27.8h1c0.1,0,0.5,0.2,0.5,0.3v1.5C164.4,162.3,164,162.2,163.9,162.2z"/><g><path fill="#fb9a78" d="M166.9,138.8c-1.3-1.2-4.8-3.6-4.8-3.6l0.1,2.9l-9.5-1.5c-0.6,0-1.1,0.4-1.1,1.1     c0,0.6,0.5,1,1,1l6.8,1.2c0.1,0,0.2,0.1,0.2,0.2c0,0.1-0.1,0.2-0.2,0.2l-8.7-0.9c-0.6,0-1.1,0.4-1.1,1.1c0,0.6,0.5,1,1,1l8.7,0.9     c0.1,0,0.1,0.1,0.1,0.2c0,0.1-0.1,0.1-0.2,0.1l-7.2-0.3c-0.6,0-1.1,0.4-1.1,1.1c0,0.6,0.5,1,1,1l7.1,0.3c0.1,0,0.2,0.1,0.2,0.2     c0,0.1-0.1,0.2-0.2,0.2l-5-0.1c-0.5,0-0.9,0.3-1,0.8c-0.1,0.5,0.3,1,0.8,1.1l10.6,0.5c0.4,0,1.5-0.1,1.8-0.2L166.9,138.8z"/></g><g><path fill="#fb9a78" d="M132.8,138.5c1.3-1.2,5-3.6,5-3.6l-0.1,2.9l9.4-1.4c0.6,0,1.1,0.4,1.1,1.1      c0,0.6-0.5,1-1,1l-6.8,1.2c-0.1,0-0.2,0.1-0.2,0.2c0,0.1,0.1,0.2,0.2,0.2l8.7-0.9c0.6,0,1.1,0.4,1.1,1.1c0,0.6-0.5,1-1,1      l-8.7,0.9c-0.1,0-0.1,0.1-0.1,0.2c0,0.1,0.1,0.1,0.2,0.1l7.2-0.3c0.6,0,1.1,0.4,1.1,1.1c0,0.6-0.5,1-1,1l-7.1,0.3      c-0.1,0-0.2,0.1-0.2,0.2c0,0.1,0.1,0.2,0.2,0.2l5-0.1c0.5,0,0.9,0.3,1,0.8c0.1,0.5-0.3,1-0.8,1.1l-10.6,0.5      c-0.4,0-1.5-0.1-1.8-0.2L132.8,138.5z"/><path fill="none" stroke="#f4704d" stroke-miterlimit="10" stroke-width=".174" d="M150,139.4c0.2,0.2,0.3,0.5,0.3,0.8c0,0.4-0.3,0.8-0.6,0.9"/><path fill="#f26b4a" d="M128.5,149.6c2.7,0.3,8.3-1.3,8.3-1.3l-0.9-12.6h-10.4"/><path fill="none" stroke="#fff" stroke-miterlimit="10" stroke-width=".347" d="M128.6,149.7c2.7,0.3,8.3-1.2,8.3-1.2"/><path fill="none" stroke="#fff" stroke-miterlimit="10" stroke-width=".347" d="M135.9,135.7c0,0-11.5-2.7-17.7,1.9"/><line x1="128.1" x2="128.1" y1="135.1" y2="127.8" fill="none" stroke="#fff" stroke-miterlimit="10" stroke-width=".347"/></g><g><path fill="#f26b4a" d="M171.2,149.7c-3.8,0.4-8.3-1.3-8.3-1.3l0.9-12.6h10.4"/><path fill="none" stroke="#fff" stroke-miterlimit="10" stroke-width=".347" d="M171.1,149.8c-3.8,0.4-8.3-1.3-8.3-1.3"/><path fill="none" stroke="#fff" stroke-miterlimit="10" stroke-width=".347" d="M163.8,135.9c0,0,10.9-2.9,16.1,1.7"/><line x1="170.8" x2="170.8" y1="135.1" y2="127.8" fill="none" stroke="#fff" stroke-miterlimit="10" stroke-width=".347"/></g></g><g><path fill="#a3b763" d="M146.3,191.8l-0.4,0.4l-8.1-7.8c-0.9-0.9-0.9-2.3-0.1-3.3l2.6-2.7l0.4,0.4l-2.6,2.7      c-0.6,0.7-0.6,1.7,0,2.4L146.3,191.8z"/><polygon fill="#fff" points="144.7 194.1 148.1 190.6 146.1 188.4 142.4 192.1"/><polygon fill="#fff" points="141.6 183.5 141.9 183.3 141.4 182.8 136.7 187.8 137.1 188.2 137.4 187.9 139.6 189.8 143.5 185.6"/><polygon fill="#a3b763" points="139.6 189.8 142.4 192.1 146.1 188.4 143.5 185.6"/><path fill="#4e69c2" d="M153.8,173.5c0-0.2-0.1-0.3-0.2-0.3l-0.7-0.2c-0.2,0-0.3,0.1-0.3,0.2l-0.3,1.3     c0,0.2,0.1,0.3,0.2,0.3l0.7,0.2c0.2,0,0.3-0.1,0.3-0.2L153.8,173.5z"/><rect width=".2" height="1.8" x="153.6" y="173.2" fill="#4e69c2" transform="rotate(12.095 153.72 174.1)"/><path fill="#8fc2ff" d="M162.2,181c0,0.5-0.4,1.5-0.9,1.9c0,0-0.1,0.1-0.1,0.1c-0.1,0.1-0.5,0-0.6-0.1     c-0.1-0.1-0.1-0.4-0.2-0.5c-0.2-0.1-0.8,0.5-1,0.3c-0.2-0.1,0.1-0.8-0.1-1c-0.2-0.2-0.8,0.2-1,0c-0.2-0.2-0.1-0.7,0-0.9     c0.1-0.5,1-1.4,0.9-2c-0.1-0.3-0.8-0.5-0.9-0.8c-0.1-0.2,0.3-0.6,0.2-0.8c-0.1-0.5-1-1.1-1.5-1.2c-0.7-0.2-2.2,0.9-2.9,0.5     c-0.4-0.2-0.5-1.7-0.5-1.7l0.2-0.9l0.1-0.5c0,0,1-1.1,1.4-1c0.8,0.1,1.3,2.1,2,2.3c0.6,0.2,1.7-0.9,2.2-0.6c1,0.5,1.5,3,1.5,4.2     c0,0.2-0.4,0.7-0.3,0.9C160.9,179.8,162.2,180.4,162.2,181z"/><path fill="#73b1ef" d="M161.5,182.1c0,0.2,0,0.5-0.2,0.8c0,0-0.1,0.1-0.1,0.1c-0.1,0.1-0.5,0-0.6-0.1     c-0.1-0.1-0.1-0.4-0.2-0.5c-0.2-0.1-0.8,0.5-1,0.3c-0.2-0.1,0.1-0.8-0.1-1c-0.2-0.2-0.8,0.2-1,0c-0.2-0.2-0.1-0.7,0-0.9     c0.1-0.5,1-1.4,0.9-2c-0.1-0.3-0.8-0.5-0.9-0.8c-0.1-0.2,0.3-0.6,0.2-0.8c-0.1-0.5-1-1.1-1.5-1.2c-0.7-0.2-2.2,0.9-2.9,0.5     c-0.4-0.2-0.5-1.7-0.5-1.7l0.2-0.9c0.3-0.2,0.6-0.4,0.8-0.4c0.8,0.1,1.3,2.1,2,2.3c0.6,0.2,1.7-0.9,2.2-0.6c1,0.5,1.5,3,1.5,4.2     c0,0.2-0.4,0.7-0.3,0.9C160.2,180.8,161.4,181.5,161.5,182.1z"/><polygon fill="#3a2333" points="142.5 174.7 144 175.6 144.1 174 145.6 174.8 146.1 173.6 143.4 168.1 138.4 170.5 141.1 176 142.7 176.3"/><line x1="140.2" x2="142.3" y1="171" y2="173.3" fill="none" stroke="#51374a" stroke-miterlimit="10" stroke-width=".103"/><line x1="142.7" x2="144.2" y1="169.7" y2="173.2" fill="none" stroke="#51374a" stroke-miterlimit="10" stroke-width=".103"/><path fill="#b5784e" d="M159.5,169.1c0,0.6-0.3,1-0.6,1c-0.3,0-0.3-0.5-0.5-1c-0.3-0.6,0.2-1,0.5-1    C159.2,168.1,159.5,168.5,159.5,169.1z"/><path fill="#b5784e" d="M155.5,187c0,0.6-0.3,1-0.6,1c-0.3,0-0.3-0.5-0.5-1c-0.3-0.6,0.2-1,0.5-1    C155.2,186,155.5,186.4,155.5,187z"/><path fill="#b5784e" d="M141.9,200.1c0.3,0.5,0.3,1,0,1.2c-0.3,0.2-0.5-0.3-1-0.6c-0.5-0.3-0.4-0.9-0.1-1.1    C141.1,199.5,141.6,199.7,141.9,200.1z"/><path fill="#b5784e" d="M149.7,163.7c0.6,0.1,1,0.4,0.9,0.7s-0.5,0.2-1.1,0.4c-0.6,0.2-1-0.3-0.9-0.6    C148.7,163.9,149.1,163.7,149.7,163.7z"/><path fill="#b5784e" d="M150.6,178.1c-0.3,0.5-0.8,0.7-1.1,0.5c-0.3-0.2,0.1-0.6,0.2-1.1c0.1-0.6,0.7-0.7,1-0.5    S150.9,177.6,150.6,178.1z"/><path fill="#b5784e" d="M159.2,205.1c-0.3,0.5-0.8,0.7-1.1,0.5c-0.3-0.2,0.1-0.6,0.2-1.1c0.1-0.6,0.7-0.7,1-0.5    S159.5,204.6,159.2,205.1z"/><path fill="#b5784e" d="M149.5,215.8c0,0.6-0.3,1-0.6,1s-0.2-0.5-0.5-1c-0.3-0.6,0.2-1,0.5-1    S149.5,215.2,149.5,215.8z"/><g><path fill="#eaeaea" d="M165.2,190.9l2,0.5l-2.2,1.5l-1.5-0.2l0-2.1l-1.8,1.3l0.9,0.6c0,0-0.7,0.3-0.7,0.4     c0,0-1,1.3-1,1.3l-1.2-1.1l0-1.3l1.2,0.2l-3.1-1.8l1.5,1.7l-0.9,1.3l1.9,1.6l0.7,0.5c0,0,1.3-1.5,1.4-1.6     c0.1-0.1,1.4,0.4,1.4,0.4l2.3-0.6l1.7-1.9l-0.8-0.1l-2.1-1l-0.1-1.1l0-0.1l-0.9,0.6L165.2,190.9z"/><path fill="#fff" d="M162,189.4l-1.1-1.5l-1.2-0.8l0.5,2.3l-0.4,0.3l-0.7-0.1l-0.3,0.3l-1.1,0l0,0l3.1,1.8     l-1.2-0.2l0,1.3l1.2,1.1c0,0,1-1.2,1-1.3c0,0,0.7-0.4,0.7-0.4l-0.9-0.6l1.8-1.3l0,2.1l1.5,0.2l2.2-1.5l-2-0.5l-1.2-1.1l0.9-0.6     l-0.2-1.1L162,189.4z"/></g><g><path fill="#f95152" d="M151.4,203.9c0.5-0.2,1-0.4,1.3-0.8c1.1-1.2,1.4-2.8,0.9-3.8l0.4-0.5l-1-0.9l-0.4,0.5     c-1.1-0.5-2.6,0-3.7,1.3c-0.3,0.4-0.5,0.9-0.6,1.4l0,0c0,0-0.8,1.3-1.1,1.7c-0.2,0.3-1.2,0.8-1.2,0.8l-4.5,5     c-0.1,0.1-0.1,0.2,0,0.3l0.3,0.3c0.1,0.1,0.1,0.1,0.2,0c0.2-0.1,0.4-0.1,0.6,0.1c0.2,0.2,0.2,0.4,0.2,0.6c0,0.1,0,0.2,0.1,0.2     l0.4,0.3c0.1,0.1,0.1,0.1,0.2,0c0.2-0.1,0.4-0.1,0.6,0.1c0.2,0.2,0.2,0.4,0.2,0.6c0,0.1,0,0.2,0.1,0.2l0.2,0.2     c0.1,0.1,0.2,0.1,0.3,0l4.5-5c0,0,0.5-0.9,0.7-1.2C150.2,204.8,151.4,203.9,151.4,203.9L151.4,203.9z"/><path fill="#4e69c2" d="M154.6,198.1l-0.9-0.8c-0.1-0.1-0.3-0.2-0.4-0.1l-0.5,0.5l1.3,1.2l0.5-0.5     C154.7,198.3,154.7,198.2,154.6,198.1z"/></g><g><path fill="#fbc25f" d="M153.7,215.5c0,0,0.1,0.1,0.2,0.3c0.4,0.6,1.3,2,1.8,2.4c0.5,0.4,2,0.7,2.5,1.1     c0.7,0.6,1.2,2.6,2.1,2.9c0.6,0.2,1.9-0.2,2.6-0.7c0.2-0.1,0.4-0.3,0.5-0.4c0.6-0.6,1.5-2.5,1.2-3.4c-0.3-1.1-3-1.7-3.6-2.6     c-0.2-0.4-0.1-1.4-0.4-1.7c-0.3-0.4-1.4-0.4-1.7-0.7c-0.2-0.2-0.3-1.1-0.4-1.2c0-0.1-0.6-0.5-0.6-0.5L153.7,215.5z"/><path fill="#f7ae46" d="M153.9,215.8c0.4,0.6,1.3,2,1.8,2.4c0.5,0.4,2,0.7,2.5,1.1c0.7,0.6,1.2,2.6,2.1,2.9     c0.6,0.2,1.9-0.2,2.6-0.7c0.3-0.7,0.4-1.4,0.3-1.8c-0.3-1.1-3-1.7-3.6-2.6c-0.2-0.4-0.1-1.4-0.4-1.7c-0.3-0.4-1.4-0.4-1.7-0.7     c-0.2-0.2-0.3-1.1-0.4-1.2c0-0.1-0.6-0.5-0.6-0.5L153.9,215.8z"/><ellipse cx="155.8" cy="213.3" fill="#c1c1c1" rx="3" ry="1.8" transform="rotate(-46.021 155.78 213.307)"/><path fill="#a5a5a5" d="M155.7,213.6l0.1,0.5c0,0.3,0.3,0.5,0.6,0.5c0.3,0,0.5-0.3,0.4-0.6l-0.1-0.5     c0-0.3-0.3-0.5-0.6-0.5C155.8,213,155.6,213.3,155.7,213.6z M156,214.2c0-0.1,0.1-0.2,0.3-0.2c0.2,0,0.3,0,0.3,0.1     c0,0.1-0.1,0.2-0.3,0.2C156.2,214.3,156,214.3,156,214.2z M155.9,213.5c0-0.1,0.1-0.2,0.3-0.2c0.2,0,0.3,0,0.3,0.1     c0,0.1-0.1,0.2-0.3,0.2C156,213.7,155.9,213.6,155.9,213.5z"/><ellipse cx="156.3" cy="212.5" rx="1.1" ry=".7" transform="rotate(-27.111 156.26 212.527)"/></g></g><g><path fill="#f95152" d="M198.6,231.6l-3.1,0.2c-0.2,0-0.4,0.1-0.4,0.3l0.1,1l3.9-0.2l-0.1-1    C198.9,231.7,198.8,231.6,198.6,231.6z"/><path fill="none" d="M202.7,236l-2.1-1.3c-0.3-0.2-0.8-0.1-1,0.2c-0.2,0.4-0.2,0.8,0.2,1.1l2.2,1.5     c0.4,0.3,1,0,1-0.6l0-0.5C203,236.3,202.9,236.1,202.7,236z"/><path fill="#9677be" d="M203.6,235.5l-2.7-1.9c-0.1-0.1-0.3-0.1-0.5-0.1l-1.8,0.1l0-0.7l-3.3,0.2l0,0.7l-0.3,0     c-0.2,0-0.4,0-0.6,0.2l-1.4,1.4c-0.1,0.2-0.3,0.3-0.3,0.6l0.5,8.7c0.8-0.3,1.1-1.1,2.3-1.1c1.5,0,1.5,1.2,3.1,1.2     c1.5,0,1.5-1.2,3.1-1.2c1.4,0,1.5,1,2.7,1.2l-0.5-8.7C203.9,235.8,203.8,235.6,203.6,235.5z M202,237.5l-2.2-1.5     c-0.3-0.2-0.4-0.7-0.2-1.1c0.2-0.4,0.7-0.5,1-0.2l2.1,1.3c0.1,0.1,0.2,0.3,0.3,0.4l0,0.5C203,237.5,202.5,237.8,202,237.5z"/></g><g><path fill="#f26b4a" d="M158.9,230.2l-1.8-1.6c0,0-2.3,3.7-4.1,4.5c0,0-4.1-4.5-5.4-4.8c0,0,3.9-3.1,4.3-3.9    l-0.9-1.1c0,0-3.1,2.5-4.7,3.5c-1.5,0.9-7.2,8.2-8.2,9.8c0.4,0.2,0.9,0.4,1.8,0.4c2.1,0,2.1-1.3,4.2-1.3c2.1,0,2.1,1.3,4.2,1.3    c2.1,0,2.1-1.3,4.2-1.3c0.5,0,0.9,0.1,1.2,0.2C154.8,233.7,158.9,230.9,158.9,230.2z"/></g><g><path fill="#a3b763" d="M120,244.4c1.5,0,1.5-0.6,3.1-0.6c1.5,0,1.5,0.6,3.1,0.6c0.1,0,0.1,0,0.2,0l-2.5-7.7    c-0.8-2.3-2.9-3.8-5.3-3.6l-1.6-4.9l0.4-0.1c0.2-0.1,0.2-0.3,0.1-0.5l-0.1-0.4c-0.1-0.2-0.1-0.3-0.3-0.2l-3.2,1.1    c-0.2,0.1-0.4,0.2-0.3,0.4l0.1,0.4c0.1,0.2,0.3,0.4,0.6,0.3l0.2-0.1l1.6,5c-1.9,1.3-2.9,3.7-2.1,6l1.4,4.2    c0.5-0.2,0.9-0.4,1.8-0.4C118.4,243.9,118.4,244.4,120,244.4z"/></g><g><path fill="#7c4825" d="M243.7,231.2l0.4-3.1l-2.8,0.9l0.5-3l-2.5,1.3l-0.6-2.8l-12,13.2c0.6-0.4,1.1-0.8,2.3-0.8    c2,0,2,1.3,4.1,1.3c2,0,2-1.3,4.1-1.3c1.5,0,1.9,0.7,2.9,1.1l6-6.6L243.7,231.2z"/><line x1="231.7" x2="236.9" y1="237.7" y2="231.7" fill="none" stroke="#60371b" stroke-miterlimit="10" stroke-width=".347"/><line x1="237.7" x2="239.2" y1="236.7" y2="233.4" fill="none" stroke="#60371b" stroke-miterlimit="10" stroke-width=".347"/></g><g><path fill="#7c4825" d="M79.1,237c-2,0-2,1.3-4.1,1.3c-1.2,0-1.7-0.4-2.3-0.8l-6.5-7.2l1.4,0l0.5-5.3l4.6,3.3    l0.9-4.8l12.4,13.7c-0.9,0.4-1.3,1.1-2.9,1.1C81.2,238.3,81.2,237.1,79.1,237z"/><line x1="80.5" x2="77.6" y1="237.1" y2="231" fill="none" stroke="#60371b" stroke-miterlimit="10" stroke-width=".347"/><line x1="71.8" x2="77.4" y1="231.3" y2="237.5" fill="none" stroke="#60371b" stroke-miterlimit="10" stroke-width=".347"/></g></svg>